<svg xmlns="http://www.w3.org/2000/svg" width="1081.3" height="1081.3" version="1" viewBox="0 0 811 811"><path d="M392.8 86.5l-9.3 1c-12.5 1-14 1-22.5 2.6-4 .8-9.3 1.2-11.5 1-13.8-1-31.5 1.3-50.5 6.7-13.4 3.8-27.7 13.2-26.5 17.3.4 1-1.8 2.7-7.3 5.5-18.2 9.3-38.7 22.5-54.5 35-8.6 7-11.7 9-10.2 6.5.6-1 1.6-5 2-8 .3-4.3-7 .6-12.3 8.2-3 4.2-10 15-12.6 19.2-4.6 7.7-9.8 15-19.2 27.6-5.6 7.4-13.2 18.2-17 24-12.8 19.7-28 51.7-35 74.3l-3 8.7c-1.4 1.4-2.2-3.4-1.8-10 .8-13.2 1-21.5.6-22.3-1-2-3.5 4.2-6 15-4.3 17-4.7 19.4-5 28.5-.2 2.2-.5 3-1 2-.5-.8-1 5.2-.8 13.6 0 8.3-.2 14.8-.6 14.5-.5-.2-.8 1.7-.7 4.4 0 3.6.4 4.3 1 2.8.7-1.6 1-1.7 1-.3 0 1-.4 2-1 2.3-.5.3-1 1.2-1 1.8 0 1 .2 1 .8 0 .4-.6.7 1 .7 3.8s0 5-.3 5l-1.3-2.6c-1.6-4-2.2-2.2-1 3 1 4.4 1 5-1.2 6.7-1.3 1.3-1.7 2-1 1.5.6-.3 1.5 0 1.8 1 .3.8 1 1.3 1.5 1 1-.6 2 4 1.8 9.7 0 3.5-1 5-2 3-.3-.4-.3 0 0 .8 1 3.7 1.3 6.2 1.7 16.5 1.4 32 7 62 17 91.3 1.3 4 2.4 7.7 2.3 8 0 .4.8 2.7 2 5.2 1 2.5 2.3 6.5 2.7 9 .4 2.4.8 4.7 1 5 .2.4.7 2.2 1 4 1 6.8 3.5 15 5.5 19.2 1 2.3 2 4.8 2 5.5 0 .8 1 3.6 2.5 6.4 2.8 5.6 4 5.7 7.4.6l1.7-2.7 7.5 11.2c4.2 6.2 10.3 14.8 13.7 19.2 5.5 7.3 6 7.6 6 5 0-1.6.3-4 .5-5.4l1-18 1-21c0-3 .6-11.5 1-18.7l1-19.5 1-19.8 1-20c1-14 1.8-32.7 1.8-35.7 0-3.5.6-3.8 6.7-4.8l8.5-1.5c7-1.3 10.4-2 14.5-2.6 2-.2 4.6-.7 6-1l5-1c1.4-.2 3.6-.6 5-1 6.5-1.4 20-1.6 25-.4 10 2.4 17.6 9.8 20.2 19.8 1 3.6 1 100.5.2 112.2-1.2 16.6-5.5 28.7-12.8 36.2-5.7 6-17.2 11-30 13.2l-5 1c-1.2.2-5.2 1-9 1.5-9.6 1.6-22.5 4-25.6 4.6-2.3.5-1.5 1.5 10.4 13 12 11.5 14 14.4 9.8 14.4-1.4 0-1.3.4.5 2 1.4 1 2 2.4 1.7 3.7-.4 1.4.4 2.6 3 4.4 2 1.5 4 4 4.7 5.8 1.6 4.7 5.7 8.5 13 12.2 8.7 4.3 13.7 6 18.5 6.5 4.4.4 11 3 12 4.5.3.5 1.6 1 2.8 1 1.2 0 3.3 1 4.7 2 1.4 1 3.3 2 4.2 2 1 0 2 .4 2.2 1 .3.4 1.8 1 3.3 1.3 1.6.2 8.8 3 16.2 6 7.2 3 15.6 6 18.4 6.3 2.8.3 10 2 16 4 6.2 1.7 14.7 4 19 5 4.5 1 8.3 2 8.6 2.4.3.4 1.4 1 2.5 1.4 2 .7 1.8 1-1 3-2.5 2.2-2.6 2.4-.7 2 1.2-.4 2.5-1 2.8-1.5.3-.6 3-.7 6-.4 4.5.5 5.5.3 6-1 .6-1.6 1.6-1.7 7.8-1 4 .3 8 1 9 1.2 3.4.8 54.2 1 58.8.2 2.4-.5 7-1 10.3-1.3 11.5-1 36.4-5.8 47.5-9.2 19.7-6 31.7-10 32.6-10.6.6-.6 2-.7 3-.4.8.4 2 .3 2.3-.3.2-.5 3.6-2 7.4-3.2 4-1 9.5-3.7 12.6-5.6 3-2 7-3.7 8.6-4 1.6-.2 4.5-1 6.4-1.8 2-.7 5.3-2 7.5-2.6 2.2-.7 4.7-2 5.6-2.6 1-.8 4-2.2 7-3.3 3-1 7.8-2.8 10.5-4 2.8-1.3 5.8-2.4 6.7-2.5 2.3-.2 14.4-10 24.3-20 13.5-13.3 17-19.5 14.5-25.5-1-2.7-1-3.2 3-7.6 2.5-2.5 8-7 12.5-10 14-9.3 24.5-20.8 33.8-36.6 7.6-12.8 9.8-20 10.4-32.8.3-8 1-12 3-17 4.8-12.5 15.6-46.4 17.4-55l1.2-5.3 4.2 4.4 7.3 8.3c4 4.5 10 8.7 12.3 8.7 3.8 0 4-2.4.6-6-7.6-8.3-13-18.5-16.2-31.5-.6-2.4-1.4-7.3-2-11.5-.3-2.5-.8-4.8-1-5 0-.4.8-2 2-3.4 1.4-1.5 2.3-3.6 2-4.7 0-1 .2-2 .7-2 .7 0 1-3.6.6-9.8-.5-10.5-.8-12.2-2.7-16.7-.7-1.7-1.4-8.2-1.6-14.5 0-6.3-1.2-16.4-2.4-22.5-1.2-6-2.3-12.8-2.5-15-.6-7.6-1.5-12-3.7-17.4-1.8-4.4-2.3-5-3.3-3.7-.6 1-1.6 1.3-2.2 1-.6-.5-3.2-7.2-5.7-15l-4.7-14 3-5c1.7-2.7 3.2-6 3.5-7.2.6-3-.4-2-2.6 2.8-1.3 2.6-2 3-2 1.7 0-1-1.4-2.8-3-3.8-3.2-1.7-3.2-1.8-1.5-3.7 2.3-2.6 1.5-2.6-1.5 0l-2.3 2-5.5-11.3c-10-20.6-23.3-41.2-38.5-60.2-9-11.2-17-19.8-16.3-17.5.3.8.8 3.3 1 5.5l2 13c.4 1.6 1 5.2 1.2 8l1 7.5c.2 1.4 1 7.2 2 13l2 13.5 1 5.5c.5 4.3 3.5 24.4 4 27l1 6.6c.6 5.5 1.6 12.5 2 15l2 12.4 1.8 12.5c1.8 10.8 2.8 19.6 2.5 20-.4.2-2 .7-4 1l-14.8 2.6c-6.3 1.2-11.5 2-11.7 1.8-.2-.2-.6-2.6-.8-5.3-.7-7-2-17.7-2.3-19.5 0-.8-.3-2-.3-2.3 0-.8-4-.5-10 .8l-9 1.6-8 1.4c-1.7.3-2.6 2.3-3.5 7.6-1.7 10-4 22-4.6 22.5-.5.3-8.5 2-24.8 4.7-3.4.6-6.5 1-6.8.6-.3-.4 2.5-14.5 6-31.5 3.8-17 7-32 7.2-33.3l1-4.2c.3-1 .8-3 1-4.5.3-1.5 2-10 4-18.7l4-18.2 8-37L604 184c0-.6 14.4-3.4 23.4-4.6 1.6-.2 3.2-.6 3.5-1 1.5-1.5-26-24-44.3-36.3-13-8.6-19-12-37-21-13-6.4-13.4-6.8-11.6-8.3 1.2-1 2.5-1.7 3-1.7 2.6 0-2-4-5.7-5-2.4-.7-4.3-1.7-4.3-2 0-.6-2-1-4.7-1l-4.8-.2 3.5-1.3 3.5-1.4H522c-9.7.2-9.3.3-8.6-2.4l.6-2.5-9.7.2c-7.5 0-12.3-.5-20.4-2.5-12.6-3-12.4-3-14.3-1.3-1.2 1.3-2 1.3-5.7 0-2.4-.8-5-2-6.2-2.5-1-.6-1.8-.7-1.8-.2 0 .5-2.6.5-5.7 0-13.6-1.6-21-2-38.5-2.3h-19zm145.6 112c10.6 5 13.7 12 13.2 29.3l-.5 16.4c0 5-.2 5.2-7 6.2l-13.7 2.4c-7 1.2-10.3 1.5-10.4.8-.2-1.2-.2-2.4 0-15.2.2-9.5-1.5-14-6.2-15.8-4-1.8-11.3-1-16 1.6-6.4 3.7-8 9.4-9.3 33.3l-1 20-1 19.5-1 21.5c-1.5 27.8-1.4 29 1 32.8 2.4 3.5 6.3 5.5 10 5l5-.5c1.8-.2 4.6-1.8 7-4.3 5-4.8 6.2-9 7-27l1-15.7c0-2 0-3.6-.4-3.4-.2.2-2.3.7-4.5 1-8 1.3-11 1.8-12.7 2.2-1.6.5-1.7-.3-1.4-7.8l.5-13.4v-5.2l6.8-1.2 17.7-3 16.7-3c3-.7 6.7-1.3 8-1.4 2.3 0 2.3-.2 1.3 16.4 0 2.5-.6 11.2-1 19.5l-1 19-2 37.2c0 4.2-1 5-6.5 5.7-2.5.3-7.6 1.3-11.5 2-9.6 2-9.2 2.3-9-3.5l.2-5.3-2 3c-7.8 10.8-21.4 17-36.2 16.8-14-.3-22-7-26.2-22-1-3.8-1.2-10-.8-26 .4-11.6.8-22 1-23.5l1-17.5c.3-8.3.8-17.5 1-20.5.3-3 .7-10.5 1-16.5 1-17.6 2-24.4 5.5-33.8 7-19 29.6-30 59.6-29.4 9.8.3 11.8.6 16.8 3zm-100 25.7l-.7 13.5c0 1-3 1.8-19.7 4.8l-11.5 2c-1.6.3-7 1.3-11.7 2l-8.8 1.7v3.2l-1.4 27.4-.5 11.3 2.8-.4c1.5-.4 5.2-1 8.2-1.6l20-3.4c8-1.4 15.3-2.6 16.2-2.6 1.5 0 1.6 1 1.2 8.2-.6 9.3-1 17-1.3 18 0 .3-2 1-4.6 1.3-4.7.7-7 1-11.4 2l-6.5 1-5.5 1-5 1c-9 1.4-14.4 2.5-14.8 3-.3.3-.7 2.4-.8 4.8l-2 40c-.5 9.2-.4 9.8 1.3 9.3 1-.2 4-.7 6.7-1l5.5-1c.2-.2 2.3-.7 4.5-1 6.7-1 9.5-1.6 21.2-3.6 15.5-2.8 14.3-3.2 13.8 4.7l-.7 13.5c0 3.8-.7 6.8-1.3 7-.5 0-1.7 0-2.5.3-1.4.3-11.5 2-18.5 3L403 395c-2.5.5-15 2.8-28 5l-26 4.6-2.3.5.7-14.2c.4-8 1-17.2 1-20.8l1-20c.4-7.4 1-16.2 1-19.5.3-3.3.7-12 1-19 1-21.5 1.5-29.6 2-38.5l1.2-21c1-23.5 1.2-25 1.6-25.5.3-.3 30-5.7 44.3-8 2.2-.4 5-1 6.5-1 18.4-3.5 28.8-5.3 30.3-5.4 1.6 0 1.7 1 1 12.2zm-112 17.6c-.2 6-.6 15-1 20.2-1 21.5-1.4 28-2 38.5-.2 6-.7 14.4-1 18.5l-2 38c0 4-.6 14-1 22-.3 8-.8 16-1 18l-.3 8v4.7l-12.7 2.2c-7 1-14.2 2.4-16 2.7-3 .5-3.2.4-2.8-3 .2-1.7.7-7.7 1-13.2l1-16 1-13.5 2-28 1-14.5 1-14.5 1-13.5 1-16 1-14 .4-6-2 8-2.5 11-1.5 6.5-1.4 6c-.2 1.4-2.8 12.8-5.6 25.5-3 12.6-5.3 23.7-5.5 24.5l-3 12.5-3 14c-1.3 6.5-1.7 8.6-5.5 25l-4.6 20.7c-.3 2-.7 3.8-.8 3.8l-11.2 2c-20 3.6-18.2 3.6-18.8-.2l-1-6.8-2.2-16-3-21.5c0-1.7-.5-4.6-.8-6.5l-2.6-19c-1-8.5-2.3-16.6-2.5-18l-2-14-2-14c0-1.4-.6-5.2-1-8.5l-1-7.5c0-.8-.6-3.7-1-6.5-1-7.5-1.5-6.7-1.6 2.6 0 4.7-.3 11.2-.5 14.5 0 3.3-.6 15.7-1 27.5l-1 31-2.4 68c0 2.6-.4 2.8-7.7 4l-8.3 1.3-6.5 1.3-7.4 1.4c-1.2 0-1.2-3.5.5-34.5l1-19 1-20 1-19 1-19.5 2-37.5c1-21.5 1.5-28.8 1.7-29 .2-.2 2-.6 3.8-1 5.8-.8 42.3-7.5 44.7-8 2.5-.6 3 .4 3.8 8.5l1 9 1 9 1 9 1 8.5 1 8 2 19.5.8 6.5c.3 2.7 1 7 1.2 9.7l1 9.3c1.8 16.4 2.5 22 3 22.2l3-13 5-24.7 3-14.2 6.6-31.5c3.5-15.8 6.4-29.7 6.6-30.8 2.6-13.2 2-12.5 11-14l9-1.5c25-4.7 30-5.6 31.7-5.7 1.7-.2 1.7.6 1.2 10.5zm341.8 123.7c-.5 7.5-1 16.3-1 19-.2 2-1.3 2.3-8.4 3.5l-8.8 1.5-7.7 1.4-7.3 1.2v5.6c0 3.2-.3 6.4-.5 7.3l-1 18-1 20.5c0 2.2-.5 10.3-1 18l-1 22-1 17.5c-.2 5.2-.8 15-1 22l-1 16.2c0 3.6-.2 3.8-4.5 4.7l-8.5 1.5c-2.2.4-5 1-6 1l-5.7 1-4.5.6c-2.3.5-3-.3-2.7-3.8 0-2 .4-8.7.8-14.7l1-19.5 1.2-21.5 2-38.5c.3-8 .7-16.5 1-19 0-2.5.6-11 1-19l.6-14.7-21 3.8c-11.6 2.2-23 4.2-25.4 4.5-2.4.3-5 .8-5.8 1l-5 1c-7.7 1.3-19.4 3.5-19.7 4-.6.4-1 7-1.8 22.5l-1 18.3c-.2 3.7 0 3.7 3 3.2l23.4-4c18.6-3.4 24-3.7 22.7-1.8-.3.5-.8 6-1 12.2-.4 6.2-1 11.6-1.2 11.8-.2.3-1.5.6-2.7.7l-5.8 1-14.5 2.6c-6 1-12 2.2-13 2.4l-7.2 1c-4 .6-5.3 1.2-5.4 2.4l-.5 7.2-1 18.5-1 20.5-1 19.5c-.3 6.5-.7 12-1 12.2-.8 1-30.7 5.8-31 5-.4-.3-.4-5 0-10l1-18.2 2-37 1-20.5 1-17.5 1-18 1-18.5 1-19c.4-7.4.8-14.6 1-16 0-2.6 1.4-3 11.5-4.5 2.5-.3 7.7-1.2 11.5-2 7-1.4 8-1.6 16.5-3 2.5-.4 5.4-1 6.5-1 1-.3 7.2-1.4 13.5-2.5l14-2.5 8.5-1.5 8.5-1.4 8.5-1.5 8-1.4c5.2-1 9.3-1.6 13-2.2l8.5-1.5c2.5-.7 6-1.4 8-1.6l18.5-3.4c8.3-1.5 15.7-2.7 16.5-2.6 1.2 0 1.4 1.4 1.2 6zm-214 32.5c0 .5 0 1.3.2 1.7.2 1 1.8 10.8 2 13.8l2.7 17.5 1.6 9.5 3 19.2c0 1.2.7 5.7 1.4 10 2 13.5 2 14.5 4 27.3l2.5 17 1 7c.2 1.4 1 7 2 12.5l2 13.5c2.8 19 3 22.2 2 22.5-4.4 1.2-30 5.5-30.3 5-.3-.3-.6-1.5-.8-2.7-1-12-1.5-15.6-2-17.3 0-1-.3-3.3-.3-5 0-2.7 0-2.7-4.3-2l-7.3 1-10.2 2c-4 .6-7.4 1.4-7.5 1.6-.2.3-1.6 7-3 15l-3 14.8-7.6 1.3-8 1.5-5 1c-2.5.3-9.4 1.6-15.5 2.7l-14 2.5c-1.6.2-4.7.8-6.8 1.3-2 .4-4 .5-4.2 0-.8-1.2-6-18-16-50.5-3.8-12-7-22.3-7.5-22.8-.7-.8-9 0-11 1.2-.5.3-1.2 4.5-1.5 9.6l-1 18c-.2 4.8-.8 14.7-1 22-.5 7-1 14.5-1 16.4-.2 2-.3 5.8-.4 8.6 0 3.3-.4 5-1.2 5-1.5.2-25.2 4.2-28.5 5-2 .4-2 0-1.8-3.8l1-17.3c.6-14.5 1.3-27.3 2-38.5l1-20 1-18.6 1-21 1-18.4 1-19.5c.4-8.8.8-17 1-18.4 0-2.6 1.2-3 11.5-5 3.6-.5 11.5-2 17.5-3l14-2.5c1.7-.2 4-.7 5-1 15-3 24.7-2.3 32 2 9.6 5.6 12.7 14.7 12 34.4-1.3 31-2 35.3-7.2 43-2.4 3.6-12.4 11-15 11-1.8 0-1.7 2 .6 8.2l11.5 33.3c5.2 15.4 9.8 28.7 10.2 29.5.5 1.4 1.3-.8 2.7-8l1.5-7 6.4-30 1.6-7.5c.6-2.8 1.4-6 1.6-7.5.3-1.4 1-5.3 2-8.6l1.8-8.5 4.5-21.4 4.4-21 1.6-7 1.6-7.6 3-14 3-13.7 1.7-8 1.4-5.8 5.4-1.2c3-.7 7.3-1.5 9.5-1.8 2.2-.3 7-1.2 10.5-2 8.2-1.6 11-1.8 11-.5z"/><path d="M325.5 444.7c-4.4 1-8.2 1.7-8.4 2-.3.2-.7 6-1.5 25.3l-1 18c-.3 3-.2 3.2 2.8 2.5l5.2-1c21-3 24-7.2 24.6-35.5.4-12.6-3.6-14.7-21.5-11.3zM433 453.7l-2.5 15.8c-.4 2.7-.8 5.2-1 5.5-.2.3-1.3 6-2.4 12.5-3.2 18.3-4 22.7-4.7 26l-1 6.2-.5 4 4-.7c2-.5 5.5-1 7.7-1.4l6.8-1.2 2.8-.6-.5-8.6c-.3-4.8-.8-9.8-1-11.2-.3-1.4-.7-5.2-1-8.5l-1-9.5-1-10-1-11-1-9c-.2-2.3-.6-4.4-.8-4.6-.2-.2-1 2.6-1.6 6.3zM621.3 229.2c0 .7-.3 2.6-.7 4.3-1.2 6-9 50.2-10 57l-2 10c-.8 2.3-.6 2.7 1 2.2 1-.3 4-1 6.4-1.2 13.4-2 13.8-2.3 13.5-5.3l-1-9.7-1-10-1-8.5-2-20.5-1-11c-.4-4-1-7.4-1.4-7.8-.3-.4-.7-.2-.7.5zM220.8 464.6l-6.7 1c-9.4 1-9.7 1-10 9.6 0 4-.3 9.3-.5 11.8 0 2.5-.6 11-1 19l-1 20.5-1 19c-.7 15.2-1.2 25.4-2 38.6l-.6 9.7 9.4-1.8c10.5-2 14-3.5 17.8-7.7 3.4-3.6 4.6-8.3 5.3-21.8l1-19 1-18 1-19.5c2-31.5 1.4-37.4-3.7-40-2-1-8.4-2-9-1.4z"/></svg>