<svg xmlns="http://www.w3.org/2000/svg" xmlns:xlink="http://www.w3.org/1999/xlink" width="685" height="644" version="1.1" viewBox="0 0 685 644"><title>v2_logo copy</title><desc>Created with Sketch.</desc><g id="Page-2" fill="none" fill-rule="evenodd" stroke="none" stroke-width="1"><g id="Artboard-1-Copy" fill="#000" transform="translate(-70.000000, -86.000000)"><g id="v2_logo-copy" transform="translate(56.000000, 82.000000)"><polygon id="Shape" points="573.725 216.922 566.176 142.461 552.108 221.039"/><path id="Shape" d="M275.539216,361.72549 L260.784314,364.470588 L258.382353,411.137255 L271.078431,408.735294 C280.343137,407.019608 284.460784,404.960784 286.862745,401.529412 C287.54902,400.5 288.235294,398.784314 288.921569,397.068627 C289.95098,393.637255 290.294118,391.921569 290.637255,384.372549 L291.323529,373.392157 L291.323529,368.588235 C289.607843,362.068627 285.490196,360.009804 275.539216,361.72549 L275.539216,361.72549 Z"/><polygon id="Shape" points="364.412 441.676 386.373 437.902 378.824 363.098"/><path id="Shape" d="M167.794118,504.127451 C171.911765,500.696078 173.970588,495.54902 174.313725,484.22549 L178.77451,400.843137 C179.117647,396.382353 178.77451,393.294118 178.431373,391.235294 C177.058824,383.343137 172.254902,380.941176 158.872549,383.343137 L148.578431,385.058824 L142.058824,511.676471 L153.382353,509.617647 C161.27451,508.245098 164.705882,506.872549 167.794118,504.127451 L167.794118,504.127451 Z"/><path id="Shape" d="M461.862745,10.4825708 C462.205882,10.4825708 462.205882,10.7189542 462.892157,10.7189542 C462.892157,10.7189542 463.235294,10.9553377 463.235294,10.7189542 C463.235294,10.7189542 463.578431,10.2461874 463.235294,10.2461874 C462.892157,10.2461874 462.54902,10.0098039 462.54902,10.0098039 L461.519608,10.0098039 L461.176471,10.0098039 L461.176471,10.0098039 L461.519608,10.0098039 C461.519608,10.2461874 461.862745,10.4825708 461.862745,10.4825708 L461.862745,10.4825708 Z"/><path id="Shape"/><path id="Shape"/><path id="Shape" d="M214.392157,37.7183491 L214.392157,37.3828371 C214.254902,37.3828371 214.254902,37.2150811 214.117647,37.3828371 C214.117647,37.5505931 214.117647,37.7183491 214.392157,37.7183491 L214.392157,37.7183491 Z"/><path id="Shape"/><polygon id="Shape" points="215.833 36.088 215.833 36.188"/><path id="Shape"/><path id="Shape"/><path id="Shape" d="M216.794118,36.2181583 C216.794118,36.05967 216.656863,35.9011817 216.519608,36.2181583 C216.519608,36.3766466 216.656863,36.5351349 216.794118,36.2181583 L216.794118,36.2181583 Z"/><polygon id="Shape" points="216.963 33.686 216.863 33.786"/><path id="Shape" d="M290.637255,638.637255 C290.294118,638.637255 290.294118,638.637255 290.294118,637.95098 L289.95098,637.95098 C289.95098,638.637255 289.607843,638.980392 289.607843,639.323529 C289.264706,639.323529 288.921569,639.323529 288.578431,639.666667 C288.235294,640.352941 287.892157,641.039216 287.892157,641.72549 C288.578431,641.382353 288.578431,641.039216 288.921569,641.039216 C288.578431,641.72549 288.235294,642.411765 287.892157,642.754902 L287.54902,642.754902 C287.892157,642.754902 288.235294,643.098039 288.578431,643.098039 C288.921569,643.098039 288.921569,643.441176 288.921569,643.441176 C289.264706,643.784314 289.95098,643.441176 289.95098,643.098039 C289.95098,642.754902 289.95098,642.411765 289.607843,642.068627 C289.264706,641.039216 289.264706,640.352941 290.294118,639.666667 C290.637255,639.323529 290.294118,638.980392 290.294118,638.637255 L290.637255,638.637255 L290.637255,638.637255 Z"/><path id="Shape" d="M298.654892,647.203912 C298.889201,647.203912 299.12351,647.03823 298.889201,646.872549 C298.654892,646.872549 298.420583,646.872549 298.186275,647.03823 C298.420583,647.203912 298.420583,647.369593 298.654892,647.203912 L298.654892,647.203912 Z"/><path id="Shape" d="M299.833333,647.185662 C299.833333,647.408701 299.558824,647.408701 299.558824,647.854779 C300.382353,647.63174 300.382353,647.63174 300.656863,647.63174 C300.382353,647.63174 300.382353,647.408701 300.107843,647.408701 C300.107843,646.962623 299.833333,647.185662 299.833333,647.185662 L299.833333,647.185662 Z"/><path id="Shape" d="M296.470588,646.290478 C296.706972,646.290478 296.706972,646.446949 297.179739,646.446949 C297.179739,646.446949 297.416122,646.290478 297.179739,646.134008 C296.706972,645.977537 296.706972,646.290478 296.470588,646.290478 L296.470588,646.290478 Z"/><path id="Shape" d="M294.917892,645.77451 C295.020833,645.637255 295.020833,645.637255 294.917892,645.5 C294.814951,645.5 294.814951,645.637255 294.917892,645.77451 L294.917892,645.77451 Z"/><path id="Shape" d="M301.585994,647.490196 C302.034267,647.490196 302.258403,647.352941 302.258403,647.215686 C301.810131,647.215686 301.361858,647.215686 301.585994,647.490196 L301.585994,647.490196 Z"/><path id="Shape" d="M303.333333,646.666667 C303.333333,646.941176 302.990196,646.941176 302.990196,646.941176 L303.676471,646.941176 C303.676471,646.666667 304.362745,646.666667 304.705882,646.666667 L304.705882,646.117647 C304.705882,646.117647 304.362745,646.117647 304.362745,645.843137 C304.019608,646.392157 303.676471,646.392157 303.333333,646.666667 L303.333333,646.666667 Z"/><path id="Shape" d="M292.901961,639.855897 C292.627451,639.855897 292.627451,639.855897 292.352941,640.090206 C292.352941,640.090206 292.627451,640.090206 292.352941,640.324515 C292.352941,640.090206 292.627451,640.324515 292.901961,640.090206 C292.901961,639.855897 292.901961,639.855897 293.45098,639.621588 C293.45098,639.38728 293.176471,639.621588 292.901961,639.855897 L292.901961,639.855897 Z"/><path id="Shape" d="M293.519608,641.337275 C293.519608,641.571583 293.382353,641.571583 293.382353,642.040201 L293.656863,642.040201 L293.656863,641.805892 L293.656863,641.571583 C293.656863,641.337275 293.519608,641.102966 293.519608,641.337275 L293.519608,641.337275 Z"/><path id="Shape" d="M306.764706,646.342094 C307.237473,646.90349 307.473856,646.622792 307.473856,646.061396 C307.71024,646.061396 307.473856,645.780698 307.473856,645.5 C307.237473,645.780698 307.001089,646.061396 306.764706,646.342094 L306.764706,646.342094 Z"/><path id="Shape" d="M36.0294118,237.467984 C36.0294118,237.931219 36.0294118,238.162837 36.3577673,238.162837 C36.5219451,237.467984 36.3577673,237.236366 36.0294118,237.467984 L36.0294118,237.467984 Z"/><path id="Shape" d="M33.9705882,290.009804 C33.627451,289.666667 33.2843137,288.980392 33.2843137,288.637255 C32.9411765,287.607843 32.5980392,286.921569 33.2843137,285.892157 C33.627451,285.892157 33.2843137,285.54902 33.2843137,285.205882 C32.5980392,284.176471 32.9411765,283.147059 32.9411765,281.77451 C32.9411765,280.401961 32.9411765,279.029412 33.2843137,277.656863 C33.627451,276.284314 32.9411765,275.598039 32.254902,274.568627 C32.254902,274.22549 31.9117647,274.568627 31.9117647,274.568627 C31.5686275,274.568627 31.9117647,274.911765 31.9117647,274.911765 C31.9117647,275.941176 32.254902,276.970588 32.254902,278 C32.254902,278.686275 31.9117647,279.715686 31.9117647,280.401961 C31.9117647,281.77451 31.9117647,283.147059 32.5980392,284.519608 L32.5980392,284.862745 C32.254902,286.921569 32.9411765,288.980392 32.9411765,290.696078 C33.2843137,290.352941 33.627451,290.352941 33.9705882,290.009804 L33.9705882,290.009804 Z"/><path id="Shape" d="M35.3431373,233.735294 C36.0294118,234.078431 36.372549,235.107843 37.0588235,235.794118 C37.0588235,234.764706 37.0588235,234.421569 35.3431373,233.735294 L35.3431373,233.735294 Z"/><path id="Shape" d="M30.5392157,301.333333 C30.1960784,302.019608 30.1960784,302.362745 30.8823529,302.705882 C31.2254902,303.04902 31.5686275,303.392157 32.254902,302.705882 C31.9117647,302.362745 31.5686275,301.333333 30.5392157,301.333333 L30.5392157,301.333333 Z"/><path id="Shape" d="M34.6568627,232.668885 C33.627451,232.441474 33.627451,232.441474 32.5980392,232.555179 L32.5980392,232.668885 L34.6568627,232.668885 L34.6568627,232.668885 Z"/><path id="Shape"/><path id="Shape" d="M32.9411765,244.372549 C33.2843137,244.715686 33.2843137,245.401961 33.2843137,245.745098 C33.2843137,246.77451 32.9411765,247.803922 33.2843137,248.833333 C33.627451,249.862745 33.9705882,250.892157 33.9705882,251.921569 C33.9705882,252.264706 34.3137255,251.921569 34.6568627,252.264706 C34.3137255,249.176471 34.3137255,246.77451 32.9411765,244.372549 L32.9411765,244.372549 Z"/><path id="Shape" d="M30.4705882,264.617647 C30.4705882,265.990196 30.4705882,267.362745 30.745098,268.735294 L31.0196078,268.735294 C31.2941176,268.392157 31.2941176,268.392157 31.2941176,268.04902 C31.0196078,267.705882 31.0196078,267.362745 31.0196078,267.019608 C31.5686275,265.647059 30.745098,264.617647 30.745098,263.245098 C30.745098,263.245098 30.745098,262.901961 30.1960784,262.901961 C30.4705882,263.245098 30.1960784,263.588235 30.4705882,263.931373 C30.4705882,264.27451 30.4705882,264.617647 30.4705882,264.617647 L30.4705882,264.617647 Z"/><path id="Shape"/><path id="Shape" d="M23.3333333,220.696078 C23.3333333,220.352941 23.3333333,220.009804 22.9901961,219.666667 C22.6470588,218.980392 22.3039216,218.294118 22.3039216,217.607843 C21.9607843,216.578431 21.6176471,215.54902 20.5882353,214.519608 C20.9313725,215.54902 20.9313725,216.235294 21.2745098,217.264706 C21.2745098,218.637255 22.3039216,219.666667 22.9901961,220.696078 C22.6470588,221.039216 22.9901961,221.039216 23.3333333,220.696078 L23.3333333,220.696078 Z"/><path id="Shape" d="M24.4881817,228.245098 C24.2012956,228.931373 24.3447387,229.960784 24.6316248,230.303922 C24.4881817,229.960784 24.7750678,228.931373 24.4881817,228.245098 L24.4881817,228.245098 Z"/><path id="Shape" d="M31.59148,271.480392 C31.1729679,271.823529 30.9637119,272.166667 31.1729679,272.852941 C31.382224,273.196078 30.9637119,273.882353 31.59148,273.882353 C31.800736,272.509804 31.800736,270.794118 31.382224,269.421569 C31.1729679,270.45098 30.9637119,271.137255 31.59148,271.480392 L31.59148,271.480392 Z"/><path id="Shape" d="M25.8145684,232.705882 C25.115829,233.392157 25.115829,233.392157 25.5816552,234.421569 C25.8145684,234.421569 26.0474815,234.078431 26.0474815,234.078431 C25.8145684,233.735294 25.8145684,233.392157 25.8145684,232.705882 L25.8145684,232.705882 Z"/><path id="Shape" d="M23.6764706,225.156863 C23.8823529,226.186275 23.8823529,226.872549 24.0882353,227.215686 C24.0882353,227.558824 24.2941176,227.215686 24.2941176,227.215686 C24.2941176,226.529412 24.0882353,225.843137 24.0882353,225.156863 C23.8823529,225.156863 23.8823529,225.5 23.6764706,225.156863 L23.6764706,225.156863 Z"/><path id="Shape" d="M24.0196078,224.470588 L24.0196078,223.784314 C24.3627451,223.784314 24.7058824,224.127451 25.0490196,224.127451 C24.3627451,223.441176 24.0196078,222.754902 23.6764706,222.068627 C23.6764706,221.72549 23.3333333,221.72549 22.9901961,221.72549 C22.6470588,221.72549 22.6470588,222.068627 22.6470588,222.068627 C22.9901961,222.411765 22.6470588,222.754902 22.3039216,223.098039 C22.9901961,223.441176 23.3333333,223.784314 24.0196078,224.470588 L24.0196078,224.470588 L24.0196078,224.470588 Z"/><path id="Shape"/><path id="Shape" d="M28.2745098,247.117647 C27.9828431,245.745098 27.6911765,244.372549 27.6911765,243 C27.3995098,242.656863 27.1078431,243 27.1078431,243.343137 C27.1078431,243.686275 27.3995098,243.686275 27.1078431,244.029412 C27.3995098,245.745098 27.3995098,247.117647 27.6911765,248.833333 L27.9828431,248.833333 C28.5661765,248.490196 28.2745098,247.803922 28.2745098,247.117647 L28.2745098,247.117647 Z"/><path id="Shape" d="M27.1078431,242.656863 L27.7941176,242.656863 C27.7941176,241.970588 28.1372549,241.284314 27.4509804,240.941176 C27.4509804,240.941176 27.1078431,240.941176 27.4509804,240.598039 C27.7941176,239.568627 26.7647059,238.539216 26.7647059,237.852941 C26.7647059,237.166667 26.4215686,236.823529 26.0784314,235.794118 C26.4215686,237.166667 26.0784314,238.539216 26.7647059,239.22549 C26.7647059,239.568627 27.1078431,239.568627 27.1078431,239.911765 C26.4215686,240.941176 26.7647059,241.627451 27.1078431,242.656863 L27.1078431,242.656863 Z"/><path id="Shape" d="M26.58725,305.794118 C26.4215686,305.794118 26.4215686,305.959799 26.4215686,305.959799 C26.4215686,306.12548 26.58725,306.291162 26.7529313,306.12548 C26.9186126,305.959799 26.7529313,305.959799 26.58725,305.794118 L26.58725,305.794118 Z"/><path id="Shape" d="M24.9279263,231.333333 C24.7691424,231.470588 24.7691424,231.607843 25.0867103,231.607843 C25.2454942,231.333333 25.2454942,231.333333 24.9279263,231.333333 L24.9279263,231.333333 Z"/><path id="Shape" d="M31.1568627,244.372549 C30.9509804,244.486255 30.745098,244.372549 30.5392157,244.486255 C30.9509804,244.59996 31.1568627,244.59996 31.1568627,244.372549 L31.1568627,244.372549 Z"/><path id="Shape" d="M30.8823529,262.215686 C30.8823529,260.5 30.8823529,258.441176 30.5392157,256.72549 C30.1960784,254.666667 29.8529412,252.607843 29.1666667,250.54902 C29.1666667,250.54902 29.1666667,250.205882 28.8235294,250.54902 C28.8235294,250.205882 28.8235294,250.205882 28.4803922,250.205882 L28.4803922,251.578431 C28.8235294,252.264706 29.1666667,252.264706 28.8235294,252.95098 L28.8235294,253.637255 C28.8235294,253.980392 29.1666667,254.666667 29.1666667,255.352941 C29.1666667,255.696078 28.8235294,256.039216 29.1666667,256.382353 C29.8529412,256.72549 29.8529412,257.411765 29.1666667,258.098039 L29.1666667,258.784314 C29.1666667,259.127451 29.5098039,259.813725 29.5098039,260.156863 C29.5098039,260.843137 29.5098039,261.529412 29.8529412,262.215686 C29.8529412,262.558824 30.1960784,262.558824 30.1960784,262.901961 C30.5392157,262.558824 30.8823529,262.558824 30.8823529,262.215686 L30.8823529,262.215686 Z"/><path id="Shape" d="M31.4836391,242.656863 C31.1552835,242.656863 30.9911057,243.205882 31.1552835,243.480392 C31.1552835,243.754902 31.3194613,243.754902 31.3194613,243.754902 C31.4836391,243.205882 31.4836391,242.931373 31.4836391,242.656863 L31.4836391,242.656863 Z"/><path id="Shape"/><path id="Shape" d="M14.6427748,276.284314 C14.4703408,277.107843 14.4703408,277.107843 14.8152088,277.382353 C15.1600767,276.558824 14.8152088,276.558824 14.6427748,276.284314 L14.6427748,276.284314 Z"/><path id="Shape" d="M15.7843137,280.401961 C15.932549,280.676471 15.932549,280.95098 16.0807843,281.5 C16.0807843,280.95098 16.2290196,280.401961 15.7843137,280.401961 L15.7843137,280.401961 Z"/><path id="Shape" d="M676.666667,347.313725 C677.352941,346.627451 677.696078,345.941176 677.696078,344.911765 C677.696078,344.911765 677.696078,344.22549 678.039216,343.882353 C678.72549,344.568627 679.754902,343.882353 680.098039,342.852941 C680.441176,342.166667 680.784314,340.794118 680.441176,339.421569 C680.098039,339.078431 680.098039,338.392157 680.784314,338.392157 C681.813725,338.04902 681.813725,337.019608 681.813725,335.990196 C682.156863,335.303922 681.813725,334.27451 682.156863,333.245098 L682.156863,332.215686 C681.470588,329.470588 681.470588,327.411765 681.813725,324.666667 C681.813725,323.637255 681.813725,322.95098 682.156863,322.607843 C681.813725,322.607843 681.813725,322.264706 681.470588,322.264706 C681.470588,321.235294 681.127451,320.54902 681.127451,319.862745 C680.784314,318.490196 680.784314,316.77451 680.441176,315.401961 C679.754902,313 679.411765,311.627451 677.696078,309.22549 C677.352941,308.882353 677.352941,308.196078 677.352941,307.852941 C678.382353,292.068627 676.323529,278 673.235294,265.303922 C673.235294,264.27451 672.892157,263.588235 672.54902,262.558824 C672.205882,262.215686 672.54902,261.872549 672.54902,261.529412 C672.54902,258.098039 672.205882,254.666667 671.519608,251.235294 C671.519608,250.205882 671.176471,249.519608 671.176471,248.147059 C670.147059,244.715686 668.77451,241.284314 667.058824,238.196078 C666.715686,237.852941 666.715686,237.166667 666.372549,236.823529 C665,237.509804 665,239.568627 665,241.284314 C664.656863,239.911765 663.970588,239.22549 662.941176,239.22549 C662.254902,238.196078 661.911765,236.823529 661.22549,235.794118 C659.166667,228.588235 656.764706,221.72549 654.362745,214.862745 C654.362745,213.833333 654.019608,212.803922 653.333333,212.117647 L653.333333,212.117647 C653.333333,211.77451 652.990196,211.431373 652.990196,211.088235 C652.990196,211.088235 652.990196,211.088235 652.990196,210.745098 C653.333333,210.058824 653.676471,209.029412 654.019608,208.343137 C654.362745,208 655.04902,207.313725 655.735294,206.970588 C655.04902,206.627451 655.04902,206.284314 655.04902,206.284314 C655.04902,205.941176 655.392157,205.941176 655.735294,205.941176 C655.735294,205.598039 656.078431,205.254902 656.421569,205.254902 C657.107843,205.254902 657.107843,204.568627 657.107843,204.22549 C657.45098,203.539216 657.45098,203.196078 658.137255,202.852941 L658.137255,202.509804 C658.480392,201.823529 658.137255,202.166667 658.480392,202.166667 C658.480392,202.166667 658.823529,202.166667 658.823529,201.823529 L658.480392,201.480392 C658.137255,201.480392 658.137255,201.480392 657.794118,201.137255 C658.480392,201.137255 658.480392,200.45098 658.823529,200.107843 C658.823529,199.764706 659.166667,199.421569 659.509804,199.421569 C659.509804,199.078431 659.852941,198.735294 659.509804,198.392157 C659.509804,197.705882 659.166667,197.362745 659.166667,197.019608 C659.509804,196.676471 659.852941,196.333333 659.509804,195.990196 C659.852941,195.303922 659.852941,194.617647 660.539216,194.27451 C659.852941,193.931373 659.852941,193.588235 660.196078,192.901961 L660.196078,192.215686 L659.852941,192.558824 C659.509804,192.215686 659.509804,192.215686 659.166667,191.872549 C659.166667,191.872549 658.823529,191.872549 658.480392,191.529412 C658.480392,191.872549 658.137255,191.872549 658.137255,191.872549 C657.45098,191.529412 657.45098,191.529412 657.45098,191.872549 L657.45098,192.558824 L657.794118,192.558824 C658.137255,191.872549 658.480392,192.215686 659.166667,192.215686 C659.852941,192.558824 659.509804,192.901961 659.509804,193.245098 C659.852941,193.245098 659.852941,193.588235 659.852941,193.588235 C660.196078,193.588235 660.196078,193.931373 659.509804,194.27451 C659.509804,194.617647 659.166667,194.960784 659.166667,194.960784 C658.823529,195.647059 658.823529,196.333333 658.480392,197.019608 C658.823529,197.362745 658.480392,197.705882 658.480392,198.04902 C658.480392,198.392157 658.480392,198.735294 658.137255,199.078431 C658.137255,199.421569 657.794118,199.764706 657.45098,200.107843 L657.45098,201.137255 C657.45098,201.480392 657.107843,201.480392 656.764706,201.823529 C656.421569,202.509804 656.421569,202.509804 655.735294,202.852941 C655.735294,203.196078 655.735294,203.196078 655.392157,203.539216 C655.735294,203.882353 655.392157,204.22549 655.04902,204.22549 L654.705882,203.882353 C654.362745,203.196078 654.362745,203.196078 654.705882,202.509804 C655.04902,202.166667 655.392157,201.823529 655.392157,201.137255 C655.04902,200.794118 655.04902,200.794118 655.04902,200.45098 C654.705882,200.107843 655.04902,199.764706 655.392157,199.764706 C655.392157,199.421569 655.735294,199.078431 655.392157,199.078431 C655.04902,199.421569 655.04902,199.421569 654.705882,199.764706 C654.362745,199.764706 654.019608,199.764706 654.362745,200.107843 C654.362745,200.794118 653.676471,200.107843 653.676471,200.45098 L652.990196,200.107843 C652.647059,199.764706 652.990196,199.421569 652.647059,199.421569 C652.647059,199.078431 652.647059,199.078431 652.303922,199.078431 C652.303922,199.078431 652.303922,199.078431 651.960784,199.078431 C651.960784,199.421569 651.960784,199.421569 651.617647,199.421569 C651.27451,199.078431 651.617647,198.735294 651.960784,198.735294 C652.303922,198.392157 652.303922,198.392157 652.647059,198.04902 C651.960784,198.04902 651.617647,198.392157 650.931373,198.392157 C650.931373,198.392157 650.931373,198.392157 650.588235,198.392157 C650.245098,198.392157 649.901961,197.705882 649.558824,197.705882 C648.872549,197.362745 648.872549,197.019608 648.872549,197.019608 C648.872549,196.676471 649.215686,196.333333 649.215686,196.333333 C649.215686,196.333333 649.558824,195.990196 649.901961,195.647059 L649.558824,195.647059 C650.245098,195.647059 650.931373,195.303922 650.588235,194.960784 C650.931373,194.617647 651.27451,194.617647 651.617647,194.27451 C651.960784,193.588235 652.647059,193.245098 652.990196,193.245098 C652.990196,192.901961 652.990196,192.558824 652.647059,192.901961 C652.303922,192.901961 652.303922,193.245098 651.960784,192.901961 C651.617647,193.245098 651.27451,193.588235 650.931373,193.931373 C650.245098,193.931373 649.558824,194.27451 649.558824,193.588235 C649.215686,194.617647 648.872549,195.647059 648.529412,196.676471 C648.186275,196.676471 648.186275,196.333333 648.186275,195.990196 L647.843137,196.333333 C647.5,196.676471 647.5,196.676471 647.156863,197.019608 C646.813725,197.019608 646.470588,196.676471 646.470588,196.676471 C631.715686,163.392157 611.127451,132.852941 586.421569,106.77451 L610.441176,267.705882 L579.215686,273.196078 L576.127451,244.715686 L546.960784,249.862745 L541.127451,279.715686 L508.529412,285.54902 L548.333333,101.284314 L576.127451,96.4803922 C548.333333,69.7156863 515.735294,47.754902 479.705882,32.3137255 C480.04902,32.3137255 480.04902,31.9705882 480.04902,31.9705882 C480.04902,31.627451 480.735294,31.627451 480.735294,31.2843137 L481.078431,31.2843137 C481.421569,31.2843137 482.107843,31.627451 482.45098,31.627451 C482.45098,31.627451 482.794118,31.2843137 483.137255,31.2843137 C482.794118,31.2843137 482.794118,31.2843137 482.794118,30.9411765 L482.45098,30.9411765 L482.107843,30.5980392 L482.45098,30.5980392 C482.794118,30.5980392 482.794118,30.254902 482.794118,30.254902 C482.794118,30.254902 482.45098,30.254902 482.45098,29.9117647 C482.45098,29.9117647 482.45098,29.9117647 482.45098,29.5686275 L482.794118,29.5686275 C482.794118,29.5686275 483.137255,29.9117647 483.137255,29.5686275 C483.823529,29.5686275 484.509804,28.8823529 485.196078,28.8823529 C485.539216,28.8823529 485.539216,28.5392157 485.882353,28.5392157 L486.22549,28.5392157 L486.22549,28.5392157 C486.22549,28.5392157 485.882353,28.1960784 485.539216,28.1960784 C485.539216,28.1960784 485.196078,28.1960784 485.196078,27.8529412 C485.196078,27.5098039 484.852941,27.5098039 484.166667,27.1666667 C483.823529,27.1666667 483.480392,26.4803922 483.480392,26.4803922 L483.480392,26.1372549 L483.823529,26.1372549 L484.852941,26.1372549 C484.852941,25.7941176 484.509804,25.7941176 484.509804,25.7941176 C483.823529,25.4509804 482.794118,25.1078431 482.107843,24.7647059 C482.107843,24.4215686 482.107843,24.7647059 481.764706,24.7647059 C481.421569,24.4215686 480.735294,24.4215686 480.04902,24.0784314 C479.362745,23.7352941 478.333333,23.7352941 477.647059,23.3921569 C476.960784,23.0490196 475.931373,23.0490196 475.245098,22.7058824 C474.901961,23.0490196 474.901961,22.7058824 474.901961,22.7058824 L474.901961,22.3627451 C475.245098,22.3627451 475.245098,22.3627451 475.245098,22.0196078 C475.245098,22.0196078 475.588235,22.0196078 475.588235,21.6764706 C475.588235,21.6764706 475.588235,21.3333333 475.245098,21.3333333 L474.215686,21.3333333 L472.5,21.3333333 L471.813725,21.3333333 L470.441176,21.3333333 L470.441176,21.3333333 C470.441176,20.9901961 470.098039,21.3333333 469.754902,20.9901961 L469.411765,20.9901961 C469.411765,20.9901961 469.068627,20.6470588 469.068627,20.9901961 L468.039216,20.9901961 C468.039216,21.3333333 467.696078,21.3333333 467.696078,20.9901961 L467.009804,20.9901961 C466.666667,20.9901961 466.323529,20.6470588 465.980392,20.3039216 C466.666667,19.9607843 467.009804,20.3039216 467.352941,20.3039216 C468.039216,20.3039216 468.72549,20.3039216 469.068627,19.9607843 L469.411765,19.9607843 L469.754902,19.6176471 C470.098039,19.6176471 470.098039,19.2745098 470.441176,19.2745098 L470.441176,18.9313725 C470.784314,18.9313725 471.127451,18.9313725 471.813725,18.5882353 C472.156863,18.5882353 472.156863,18.245098 472.156863,17.9019608 C471.813725,18.245098 471.127451,17.9019608 470.784314,17.9019608 C470.784314,17.9019608 470.784314,17.9019608 470.441176,17.9019608 C470.098039,18.245098 469.754902,18.245098 469.411765,17.9019608 C469.411765,17.9019608 469.068627,17.9019608 469.068627,18.245098 L468.72549,18.245098 L467.696078,18.245098 L467.352941,18.245098 L466.323529,18.245098 L465.294118,18.245098 C464.607843,18.245098 463.921569,17.9019608 463.578431,18.245098 L463.235294,18.245098 C462.892157,17.9019608 462.892157,18.245098 462.54902,18.245098 L462.205882,18.245098 C462.205882,17.9019608 461.862745,17.9019608 461.519608,17.9019608 C461.176471,17.9019608 460.833333,17.5588235 460.490196,17.9019608 C460.147059,18.245098 459.803922,18.245098 459.460784,18.245098 C459.117647,18.245098 458.77451,18.245098 458.77451,17.9019608 L458.088235,17.9019608 L457.745098,17.9019608 C457.401961,17.5588235 457.058824,17.5588235 456.715686,17.9019608 C456.029412,17.5588235 456.029412,17.5588235 456.372549,17.2156863 C456.715686,16.872549 456.715686,16.1862745 456.715686,15.8431373 C457.058824,15.5 457.401961,15.1568627 457.745098,14.8137255 C458.088235,14.4705882 458.431373,14.127451 459.117647,13.7843137 C458.77451,13.7843137 458.77451,13.4411765 458.088235,13.4411765 L457.058824,13.4411765 C456.715686,13.4411765 456.029412,13.4411765 455.343137,13.0980392 L453.284314,13.0980392 C452.598039,13.4411765 452.254902,13.4411765 451.22549,13.4411765 L450.196078,13.4411765 L448.480392,13.4411765 L446.764706,13.4411765 L445.392157,13.4411765 L444.705882,13.4411765 L444.362745,13.4411765 L443.676471,13.4411765 C443.333333,13.4411765 442.990196,13.7843137 442.647059,13.4411765 C442.647059,13.0980392 442.303922,13.4411765 442.303922,13.4411765 L441.960784,13.4411765 C441.617647,13.0980392 440.931373,13.0980392 440.588235,13.4411765 C439.901961,13.4411765 438.872549,13.0980392 438.186275,13.0980392 C437.156863,13.0980392 436.127451,12.4117647 435.441176,12.4117647 L434.754902,12.4117647 C434.411765,12.4117647 434.411765,12.0686275 433.72549,12.0686275 L433.382353,12.0686275 C432.696078,11.7254902 431.666667,11.3823529 430.637255,11.3823529 C430.294118,11.0392157 429.95098,11.3823529 429.607843,11.0392157 C429.264706,11.0392157 428.578431,11.0392157 428.235294,10.6960784 C427.892157,10.6960784 427.892157,10.6960784 427.892157,10.3529412 C427.54902,10.0098039 426.862745,10.0098039 426.519608,10.0098039 C426.519608,10.0098039 426.176471,10.3529412 425.833333,10.0098039 C425.147059,9.66666667 424.460784,9.66666667 423.431373,9.32352941 C423.088235,8.98039216 422.745098,9.32352941 422.058824,8.98039216 L421.715686,8.98039216 C421.029412,8.98039216 420.343137,8.6372549 420,8.6372549 C419.656863,8.29411765 419.313725,8.29411765 418.627451,8.29411765 L417.598039,8.29411765 L417.254902,8.29411765 C416.568627,7.95098039 415.539216,7.95098039 414.852941,8.29411765 C414.509804,8.29411765 414.166667,8.29411765 413.823529,8.6372549 C413.823529,8.98039216 413.480392,9.32352941 413.480392,9.66666667 C413.480392,9.66666667 413.480392,9.66666667 413.480392,10.0098039 C413.823529,10.3529412 413.823529,11.0392157 413.823529,11.0392157 C412.794118,10.6960784 412.107843,10.6960784 411.078431,10.3529412 C410.392157,10.3529412 410.04902,10.0098039 409.705882,10.0098039 C409.019608,9.66666667 408.333333,9.32352941 407.303922,9.32352941 C406.960784,8.98039216 406.617647,8.98039216 405.931373,8.6372549 C405.588235,8.6372549 404.901961,8.29411765 404.558824,7.95098039 L403.872549,7.95098039 C403.872549,8.29411765 403.529412,8.29411765 403.529412,7.95098039 C402.843137,7.60784314 402.156863,7.26470588 401.470588,6.57843137 C401.127451,6.57843137 400.784314,6.23529412 400.784314,6.23529412 L399.754902,6.23529412 C399.411765,6.23529412 399.411765,6.57843137 399.411765,6.57843137 C399.411765,6.92156863 399.754902,7.26470588 399.754902,7.60784314 C384.656863,5.54901961 369.558824,4.17647059 354.117647,4.17647059 C334.215686,4.17647059 314.313725,5.89215686 295.441176,9.66666667 C288.921569,7.60784314 281.372549,8.29411765 275.539216,8.98039216 C264.901961,10.3529412 254.607843,12.754902 244.313725,15.1568627 C240.196078,16.1862745 230.931373,19.6176471 223.72549,24.4215686 L223.72549,24.4215686 C222.009804,25.4509804 220.294118,26.4803922 218.921569,28.1960784 L218.921569,28.1960784 L218.921569,28.1960784 C217.892157,29.2254902 216.862745,30.5980392 216.176471,31.627451 L216.176471,31.627451 L216.176471,31.627451 L216.176471,31.627451 C216.176471,31.627451 216.176471,31.2843137 216.176471,31.627451 L216.176471,31.627451 L216.176471,31.627451 L216.176471,31.627451 L215.833333,31.9705882 L215.833333,31.9705882 C215.833333,32.3137255 215.833333,32.3137255 216.176471,32.3137255 L216.176471,32.6568627 L216.519608,32.6568627 L216.519608,32.6568627 L216.519608,32.6568627 L216.519608,32.6568627 L216.519608,33 L216.862745,33.6862745 C216.862745,33.6862745 216.862745,33.6862745 216.862745,34.0294118 L216.862745,34.372549 L216.862745,34.7156863 L216.862745,34.7156863 C190.441176,47.4117647 166.078431,63.1960784 144.460784,82.0686275 C144.460784,82.0686275 144.460784,82.0686275 144.460784,81.7254902 C144.460784,81.0392157 144.803922,80.3529412 144.803922,79.6666667 C144.803922,79.3235294 144.803922,78.9803922 145.147059,78.6372549 C145.490196,78.2941176 145.490196,77.9509804 145.490196,77.6078431 C145.490196,76.5784314 145.833333,75.5490196 145.833333,74.8627451 L145.833333,74.5196078 C146.176471,73.8333333 146.519608,73.1470588 146.862745,72.4607843 C147.205882,72.1176471 147.205882,71.7745098 146.862745,71.4313725 C146.519608,71.0882353 146.519608,71.0882353 146.519608,70.745098 C146.176471,70.4019608 146.176471,70.4019608 145.833333,70.4019608 C144.803922,69.7156863 143.77451,70.0588235 143.088235,70.745098 C142.401961,71.7745098 141.372549,72.4607843 140.686275,73.4901961 C140.343137,73.8333333 140,73.8333333 139.656863,73.8333333 L139.313725,73.8333333 C138.970588,74.1764706 138.627451,74.5196078 137.941176,74.8627451 C137.254902,75.5490196 136.911765,76.2352941 136.568627,76.9215686 C136.22549,77.6078431 135.539216,78.2941176 135.196078,79.3235294 C134.852941,79.6666667 134.509804,79.6666667 134.509804,80.0098039 C133.823529,80.6960784 133.137255,81.7254902 132.45098,82.4117647 C132.107843,82.754902 131.764706,83.0980392 131.764706,83.4411765 C131.421569,84.127451 131.078431,84.4705882 130.735294,85.1568627 C130.392157,85.8431373 130.04902,86.1862745 129.705882,86.5294118 C129.019608,87.5588235 128.676471,88.5882353 127.990196,89.9607843 C127.303922,90.9901961 126.960784,91.6764706 126.27451,92.7058824 C125.588235,93.3921569 124.901961,94.4215686 124.215686,95.1078431 C123.186275,96.4803922 122.156863,97.8529412 121.470588,99.2254902 C121.470588,99.5686275 121.127451,99.5686275 121.127451,99.9117647 C120.784314,100.254902 120.784314,100.254902 120.784314,100.598039 C120.784314,100.941176 120.784314,101.284314 120.441176,101.627451 C119.754902,102.656863 119.068627,103.686275 118.72549,104.715686 C118.382353,105.058824 118.382353,105.058824 118.382353,105.401961 C117.696078,106.088235 117.009804,106.77451 116.323529,107.803922 C115.980392,108.147059 115.637255,108.833333 115.294118,109.176471 C114.95098,109.862745 114.607843,110.205882 114.264706,110.892157 C113.921569,111.235294 113.578431,111.578431 113.578431,112.264706 C112.892157,112.95098 112.54902,113.637255 111.862745,114.323529 C111.176471,115.009804 110.833333,115.696078 110.490196,116.382353 C109.803922,117.411765 108.77451,118.441176 108.088235,119.470588 C107.401961,120.5 107.058824,121.186275 106.372549,121.872549 C79.6078431,154.813725 59.3627451,193.245098 47.3529412,234.764706 C47.0098039,234.764706 46.6666667,234.078431 46.3235294,233.735294 C45.9803922,233.392157 45.9803922,232.705882 45.6372549,232.362745 C45.2941176,231.676471 45.2941176,230.990196 45.2941176,230.303922 C45.6372549,228.931373 45.9803922,227.558824 45.2941176,226.186275 C44.9509804,225.843137 45.2941176,225.5 45.2941176,224.813725 C45.6372549,223.784314 45.2941176,223.098039 44.9509804,221.72549 C44.6078431,221.039216 44.6078431,220.696078 44.9509804,220.009804 C45.2941176,220.009804 45.2941176,219.666667 45.2941176,219.323529 C45.2941176,217.95098 45.9803922,216.578431 47.0098039,215.54902 C47.3529412,215.54902 47.3529412,215.205882 47.3529412,214.862745 C46.3235294,214.176471 45.6372549,213.147059 46.3235294,212.117647 C47.0098039,210.745098 47.0098039,209.715686 46.6666667,208.686275 C46.6666667,208 46.6666667,207.313725 46.3235294,206.627451 C45.9803922,205.941176 45.9803922,205.598039 46.3235294,205.254902 C46.6666667,204.22549 46.6666667,202.852941 46.3235294,201.480392 C45.6372549,201.480392 44.9509804,201.480392 44.9509804,202.166667 C44.2647059,202.852941 43.5784314,203.882353 43.2352941,204.568627 C42.8921569,205.598039 42.2058824,206.284314 42.2058824,207.313725 C42.2058824,207.656863 42.2058824,207.656863 41.8627451,208 C41.5196078,209.029412 41.8627451,210.058824 41.5196078,211.431373 C41.5196078,211.77451 41.1764706,212.117647 41.1764706,212.460784 C40.1470588,214.176471 40.1470588,216.235294 39.8039216,217.95098 C39.4607843,218.980392 39.4607843,220.009804 39.1176471,221.039216 C38.0882353,223.098039 37.745098,225.5 37.4019608,227.558824 C37.0588235,230.303922 36.7156863,233.04902 36.0294118,235.45098 C36.0294118,235.794118 35.6862745,236.137255 35.3431373,236.137255 C35.3431373,236.480392 35.6862745,236.480392 35.6862745,236.480392 C35.3431373,237.166667 35.6862745,237.852941 35.6862745,238.882353 L35.6862745,239.568627 C35.3431373,241.627451 35,243.686275 35,245.745098 C34.6568627,247.117647 34.6568627,248.833333 34.3137255,250.205882 C34.3137255,250.892157 33.9705882,251.578431 34.3137255,252.264706 C34.3137255,252.607843 33.9705882,252.607843 33.9705882,252.95098 C33.627451,252.264706 33.2843137,251.921569 33.2843137,251.235294 C32.9411765,252.264706 32.9411765,253.294118 32.9411765,254.323529 C32.9411765,255.352941 33.627451,256.382353 33.2843137,257.411765 C32.9411765,258.784314 33.2843137,260.156863 33.2843137,261.186275 L33.2843137,264.960784 C33.2843137,265.303922 32.9411765,265.647059 32.9411765,265.990196 C32.9411765,269.764706 33.2843137,273.539216 33.2843137,277.313725 C33.627451,278.686275 33.2843137,280.058824 33.627451,281.431373 C33.9705882,283.490196 33.627451,285.54902 33.2843137,287.607843 C32.9411765,288.637255 32.9411765,290.009804 32.9411765,291.039216 C33.2843137,293.098039 33.2843137,294.813725 33.627451,296.529412 L33.627451,297.901961 L33.2843137,297.901961 C33.2843137,297.558824 32.9411765,297.558824 32.9411765,297.215686 L32.9411765,295.5 C32.9411765,294.127451 31.9117647,293.441176 31.9117647,291.72549 C31.2254902,291.039216 31.2254902,290.352941 31.5686275,289.323529 C30.1960784,289.323529 29.8529412,290.352941 30.1960784,291.382353 C30.1960784,292.068627 30.5392157,292.411765 30.5392157,292.754902 C30.8823529,293.098039 30.8823529,293.784314 30.8823529,294.470588 C30.8823529,295.156863 31.2254902,296.186275 31.2254902,296.872549 C31.2254902,298.245098 31.5686275,299.27451 32.5980392,300.303922 C31.5686275,300.990196 30.5392157,302.019608 29.5098039,302.705882 L29.1666667,302.705882 C28.4803922,302.705882 27.7941176,303.04902 27.4509804,303.735294 C28.1372549,304.078431 28.4803922,304.078431 28.8235294,304.421569 C29.1666667,304.078431 29.1666667,303.735294 29.5098039,303.04902 C30.1960784,303.392157 30.5392157,303.735294 30.8823529,304.078431 C31.2254902,304.078431 30.8823529,304.764706 31.2254902,305.107843 L31.2254902,305.45098 L31.9117647,305.45098 C32.9411765,305.45098 33.2843137,305.794118 33.2843137,306.823529 L33.2843137,307.852941 C33.627451,307.852941 33.627451,307.852941 33.9705882,308.196078 C33.627451,312.313725 33.627451,316.088235 33.627451,320.205882 C33.627451,320.205882 33.627451,320.205882 33.2843137,319.862745 C32.9411765,319.176471 32.5980392,318.147059 31.9117647,317.460784 C31.5686275,317.117647 31.2254902,316.431373 30.8823529,316.77451 C31.2254902,317.803922 31.5686275,318.833333 31.9117647,319.519608 C31.9117647,320.205882 32.254902,321.235294 32.5980392,321.921569 L32.5980392,322.607843 C32.5980392,323.980392 32.5980392,325.009804 32.9411765,326.039216 C32.9411765,326.382353 33.2843137,326.72549 33.2843137,327.411765 C33.627451,365.156863 40.8333333,401.529412 53.1862745,434.813725 L52.8431373,434.813725 C52.5,434.813725 52.5,434.813725 52.5,435.156863 C52.1568627,435.156863 52.1568627,435.5 52.5,435.5 C52.5,435.843137 52.8431373,436.529412 53.1862745,436.872549 C53.5294118,437.558824 53.872549,438.245098 53.872549,438.931373 C53.872549,438.931373 54.2156863,439.27451 54.2156863,439.617647 C54.5588235,439.960784 54.5588235,440.647059 55.245098,440.647059 C55.245098,440.647059 55.5882353,440.990196 55.5882353,440.647059 L55.5882353,440.647059 C55.9313725,441.333333 56.2745098,442.019608 56.2745098,442.705882 C56.2745098,443.04902 56.6176471,443.735294 56.6176471,444.078431 C56.9607843,444.421569 56.9607843,444.764706 56.9607843,445.107843 L56.9607843,446.823529 C57.3039216,448.196078 57.3039216,449.22549 57.6470588,450.254902 C58.3333333,451.970588 58.3333333,453.686275 59.0196078,455.745098 C59.0196078,456.088235 59.3627451,456.431373 59.3627451,456.77451 C59.3627451,456.77451 59.3627451,457.117647 59.7058824,457.117647 C59.3627451,457.460784 59.7058824,457.460784 59.7058824,457.803922 L59.7058824,458.833333 C59.7058824,459.862745 60.0490196,460.54902 60.0490196,461.578431 C60.0490196,461.921569 60.3921569,462.607843 60.7352941,463.294118 C60.7352941,465.009804 61.0784314,466.72549 61.7647059,468.098039 C61.7647059,469.127451 62.1078431,470.156863 62.4509804,471.186275 C62.4509804,471.186275 62.4509804,471.529412 62.7941176,471.529412 C62.7941176,471.872549 63.1372549,472.215686 63.1372549,472.558824 C63.4803922,473.245098 63.4803922,474.27451 63.8235294,474.960784 C64.1666667,475.303922 64.1666667,475.990196 64.5098039,476.333333 C64.8529412,477.362745 65.5392157,478.392157 65.8823529,479.421569 C66.2254902,480.107843 66.5686275,481.137255 66.9117647,481.823529 C66.9117647,482.509804 67.254902,483.196078 67.254902,483.539216 C67.254902,484.22549 67.254902,484.568627 67.5980392,484.911765 C67.9411765,485.941176 68.2843137,486.970588 68.9705882,488 L69.3137255,488.343137 C69.6568627,489.372549 70,490.058824 70.3431373,491.088235 C70.6862745,491.77451 71.372549,492.460784 72.0588235,493.490196 C72.4019608,493.833333 72.745098,493.833333 73.0882353,493.833333 C73.4313725,493.490196 73.7745098,493.490196 74.1176471,493.147059 C74.1176471,493.147059 74.4607843,492.803922 74.8039216,492.460784 C75.1470588,492.117647 75.1470588,491.77451 75.4901961,491.77451 C75.8333333,491.431373 75.8333333,491.088235 76.1764706,491.088235 C76.5196078,490.745098 76.8627451,490.401961 76.8627451,490.058824 C77.2058824,489.715686 77.2058824,489.372549 77.5490196,489.029412 C78.2352941,488.343137 78.5784314,487.656863 78.5784314,486.284314 C86.8137255,500.009804 96.0784314,513.04902 106.029412,525.058824 L114.607843,360.696078 L162.647059,352.117647 C188.039216,347.656863 202.45098,355.205882 205.882353,375.45098 C206.568627,379.911765 206.911765,386.431373 206.22549,398.098039 L205.882353,478.392157 C205.539216,481.137255 205.539216,484.22549 205.196078,488 C203.823529,499.666667 201.764706,506.529412 197.990196,513.04902 C195.245098,518.196078 191.470588,522.313725 186.666667,525.058824 C179.117647,529.862745 173.627451,531.578431 152.009804,535.352941 L120.784314,540.843137 C129.019608,549.764706 137.598039,558 146.862745,565.892157 C146.176471,566.235294 145.833333,566.921569 145.490196,567.607843 C143.77451,568.294118 142.745098,567.95098 141.372549,568.294118 C143.088235,570.009804 145.147059,570.352941 146.176471,572.068627 C146.176471,572.411765 145.147059,573.441176 145.147059,574.127451 C144.803922,576.186275 145.490196,576.529412 147.205882,577.215686 C148.921569,578.245098 149.95098,579.27451 151.323529,580.303922 C152.352941,580.990196 153.039216,582.019608 152.696078,583.392157 C152.696078,584.421569 153.382353,584.764706 154.068627,585.45098 C154.068627,585.45098 154.411765,585.794118 155.098039,586.137255 C154.068627,586.480392 154.411765,587.509804 155.098039,588.539216 C155.441176,589.22549 156.813725,590.254902 157.843137,590.598039 C158.186275,590.598039 158.872549,590.598039 158.872549,591.284314 C158.872549,592.656863 159.558824,593 160.588235,593 C160.931373,593.686275 162.303922,594.029412 162.990196,594.715686 C163.333333,595.058824 163.676471,595.058824 164.019608,595.058824 C166.764706,595.745098 168.480392,596.77451 170.539216,598.490196 C171.22549,599.176471 171.911765,599.519608 172.254902,599.519608 C172.598039,599.176471 172.941176,599.176471 172.941176,599.176471 C173.970588,599.519608 174.656863,599.862745 175.343137,600.205882 C176.715686,600.54902 178.088235,601.235294 179.803922,601.921569 C182.205882,602.607843 183.578431,602.607843 186.323529,602.607843 C187.009804,602.607843 188.039216,602.95098 189.068627,602.95098 C190.098039,603.637255 191.813725,604.323529 192.843137,604.666667 C194.558824,605.009804 195.588235,605.696078 196.617647,607.411765 C196.960784,607.754902 197.647059,608.098039 198.333333,608.441176 C198.676471,608.098039 199.019608,607.754902 199.705882,607.411765 C200.04902,607.411765 200.04902,607.411765 200.392157,607.754902 C202.107843,608.784314 203.823529,609.813725 205.196078,610.843137 C205.882353,611.529412 206.911765,611.872549 207.598039,612.215686 C209.656863,611.872549 211.029412,612.901961 212.058824,614.27451 C213.77451,613.588235 215.147059,613.931373 216.862745,614.960784 C218.578431,615.990196 219.95098,616.333333 221.323529,617.019608 C222.696078,617.362745 224.411765,617.705882 225.784314,618.735294 C227.5,619.764706 228.529412,620.107843 230.245098,620.45098 C230.588235,620.45098 230.931373,620.794118 231.27451,620.794118 C234.362745,622.166667 237.45098,623.539216 240.882353,624.911765 C241.911765,625.254902 242.598039,625.598039 243.627451,625.941176 C247.058824,626.627451 250.490196,626.970588 253.921569,627.313725 C264.558824,630.745098 275.539216,633.833333 286.862745,636.235294 C286.862745,636.578431 286.519608,636.921569 286.519608,636.921569 L286.519608,638.294118 C285.833333,638.637255 285.833333,638.980392 285.833333,639.323529 C285.490196,639.666667 285.147059,640.696078 284.460784,640.696078 C284.803922,641.039216 284.803922,641.72549 284.460784,642.068627 L284.460784,642.754902 L284.803922,642.754902 C284.803922,643.098039 285.147059,643.441176 285.147059,643.784314 C285.147059,643.784314 285.490196,643.784314 285.490196,644.127451 C285.490196,643.784314 286.176471,643.784314 286.176471,643.784314 C286.519608,644.127451 286.519608,644.127451 286.862745,643.784314 L286.862745,643.098039 C286.862745,643.098039 286.862745,643.098039 286.519608,643.098039 C286.176471,643.784314 285.833333,643.098039 285.147059,643.098039 C284.803922,642.754902 285.147059,642.411765 285.147059,642.068627 C284.803922,642.068627 285.147059,641.72549 284.803922,641.382353 C284.460784,641.382353 284.803922,641.039216 285.147059,641.039216 C285.147059,640.696078 285.490196,640.696078 285.490196,640.352941 C285.833333,640.009804 286.176471,639.323529 286.519608,638.637255 C286.519608,638.294118 286.519608,637.95098 286.862745,637.607843 C286.862745,637.264706 286.862745,636.921569 287.54902,636.578431 L287.54902,636.578431 C288.235294,636.578431 288.921569,636.921569 289.607843,636.921569 L289.607843,636.921569 C289.607843,637.264706 289.264706,637.264706 289.607843,637.607843 C289.95098,637.607843 290.294118,637.264706 290.637255,637.264706 L290.980392,637.264706 C291.323529,637.264706 292.009804,637.607843 292.352941,637.607843 L292.352941,637.95098 L292.352941,638.294118 L292.696078,638.294118 C292.696078,637.95098 292.696078,637.95098 293.382353,637.95098 C293.382353,638.294118 293.382353,638.637255 293.039216,638.294118 C292.696078,638.294118 292.352941,638.637255 292.352941,638.980392 L294.068627,638.980392 L294.411765,638.980392 C294.754902,638.980392 295.098039,639.666667 295.098039,640.009804 C295.441176,640.352941 295.784314,640.696078 295.441176,641.039216 C295.441176,641.382353 295.098039,641.382353 295.098039,641.72549 C295.098039,642.068627 294.411765,642.068627 294.411765,642.411765 L294.754902,642.411765 C294.068627,642.411765 293.382353,642.411765 293.382353,642.754902 C293.039216,642.754902 292.696078,642.754902 292.352941,643.098039 C292.009804,643.441176 291.323529,643.784314 290.980392,643.784314 C290.980392,644.127451 290.980392,644.470588 291.323529,644.470588 L292.009804,644.470588 C292.352941,644.470588 293.039216,644.127451 293.039216,643.784314 C293.72549,643.784314 294.411765,643.784314 294.411765,644.470588 C295.098039,643.441176 295.441176,642.754902 296.127451,641.72549 C296.470588,641.72549 296.470588,642.411765 296.127451,642.411765 C296.470588,642.411765 296.813725,642.068627 296.813725,642.068627 C297.156863,642.068627 297.5,641.72549 297.843137,641.72549 C298.186275,642.068627 298.529412,642.411765 299.558824,642.411765 C300.245098,643.098039 300.588235,642.754902 300.588235,642.068627 C300.931373,642.068627 300.931373,642.411765 301.27451,642.754902 L301.617647,642.754902 L301.960784,642.754902 C302.990196,643.098039 304.019608,643.098039 305.04902,643.098039 C305.392157,643.098039 305.735294,642.411765 306.078431,642.411765 C306.764706,642.411765 306.764706,642.411765 307.45098,642.068627 C307.45098,641.72549 307.794118,641.72549 308.137255,641.382353 L308.137255,641.039216 C308.137255,640.696078 308.480392,640.009804 308.480392,640.009804 C308.480392,640.009804 308.823529,640.009804 308.823529,639.666667 C323.921569,642.068627 339.705882,643.098039 355.490196,643.098039 C393.921569,643.098039 430.980392,636.235294 465.294118,623.882353 C468.382353,623.196078 473.186275,621.480392 474.901961,620.107843 C475.588235,619.764706 475.931373,619.764706 476.617647,619.421569 L476.960784,619.421569 C476.27451,620.107843 475.931373,620.794118 475.588235,621.480392 C474.901961,622.166667 474.558824,622.509804 473.872549,623.196078 C474.558824,623.196078 474.901961,622.509804 474.901961,622.166667 C475.588235,621.823529 476.27451,621.480392 476.617647,621.480392 C477.647059,621.137255 478.676471,620.45098 479.362745,619.764706 C479.705882,619.078431 480.392157,619.078431 481.421569,619.078431 C482.107843,619.078431 482.45098,618.735294 483.137255,618.735294 C484.509804,617.362745 485.539216,616.676471 487.254902,616.676471 C487.941176,617.019608 488.284314,616.333333 488.627451,615.990196 C488.970588,615.990196 489.313725,615.647059 489.656863,615.647059 C490,616.333333 490.343137,616.333333 490.343137,616.676471 C491.715686,615.990196 493.088235,614.960784 494.117647,614.27451 C497.205882,612.558824 499.95098,610.156863 503.382353,608.784314 C505.098039,608.098039 506.470588,607.068627 508.186275,607.411765 C508.529412,607.754902 508.529412,607.411765 508.529412,607.411765 C511.617647,606.382353 514.705882,606.039216 517.107843,603.637255 C518.823529,603.980392 520.539216,603.980392 521.911765,603.294118 C523.284314,602.607843 523.970588,601.578431 525.343137,601.578431 C526.715686,600.892157 527.745098,600.205882 528.77451,598.490196 C529.803922,599.176471 530.833333,598.490196 532.205882,597.803922 C535.980392,596.77451 539.754902,595.401961 543.186275,593.343137 C543.529412,593 543.872549,593 544.215686,592.656863 C546.27451,592.313725 547.647059,591.627451 549.362745,590.254902 C549.705882,590.598039 550.392157,590.941176 550.735294,590.941176 C553.137255,590.254902 555.196078,588.539216 557.254902,586.823529 C557.941176,586.480392 559.313725,585.45098 560,584.421569 C560.343137,583.392157 561.029412,583.04902 561.715686,583.04902 C562.401961,582.705882 562.745098,582.705882 563.088235,582.705882 C563.77451,582.019608 564.117647,581.333333 564.803922,580.647059 C566.519608,579.27451 568.235294,578.245098 569.607843,576.529412 C570.294118,575.843137 570.980392,574.813725 571.323529,574.127451 C573.72549,572.411765 575.784314,570.352941 577.843137,568.637255 C578.529412,567.95098 579.215686,566.921569 580.245098,565.892157 C582.990196,562.803922 586.421569,559.372549 588.480392,555.941176 C591.22549,551.480392 592.254902,547.019608 588.480392,542.558824 C591.568627,539.127451 594.656863,536.039216 597.401961,532.607843 C621.764706,518.882353 633.77451,502.068627 643.72549,483.196078 C650.245098,471.186275 650.588235,457.460784 649.901961,447.852941 C656.078431,433.441176 660.882353,418.343137 665,402.901961 C670.147059,391.235294 670.833333,380.598039 670.833333,380.598039 C670.833333,380.598039 674.95098,383.686275 680.098039,390.54902 C696.911765,410.107843 698.627451,398.784314 698.627451,398.784314 C697.598039,396.72549 680.441176,387.460784 676.666667,347.313725 L676.666667,347.313725 Z M35.3431373,257.068627 C35,256.382353 35,255.696078 35.3431373,255.352941 C35.6862745,255.696078 35.6862745,256.382353 35.3431373,257.068627 L35.3431373,257.068627 Z M474.558824,22.0196078 L474.558824,22.0196078 L474.558824,22.0196078 C474.901961,22.0196078 474.558824,22.3627451 474.558824,22.3627451 L474.558824,22.0196078 L474.558824,22.0196078 Z M463.921569,22.0196078 C464.264706,22.0196078 464.264706,21.6764706 464.264706,22.0196078 C464.607843,22.0196078 464.607843,22.0196078 464.95098,21.6764706 L464.607843,22.0196078 C464.264706,22.3627451 464.264706,22.7058824 463.921569,22.7058824 C463.921569,22.7058824 463.578431,23.7352941 463.578431,25.1078431 L463.578431,25.1078431 C463.578431,23.3921569 463.578431,22.0196078 463.921569,22.0196078 L463.921569,22.0196078 Z M382.941176,129.764706 L381.568627,156.872549 L330.098039,166.137255 L328.039216,208 L376.764706,199.421569 L375.392157,226.529412 L326.666667,235.107843 L323.921569,290.009804 L377.794118,280.401961 L376.421569,307.852941 L290.637255,322.95098 L299.901961,144.176471 L382.941176,129.764706 L382.941176,129.764706 Z M35.6862745,323.637255 L36.372549,323.637255 L36.372549,324.323529 C36.0294118,324.323529 35.6862745,323.980392 35.6862745,323.637255 L35.6862745,323.637255 Z M67.254902,462.264706 C67.254902,462.607843 67.254902,462.607843 67.254902,462.264706 C67.254902,462.607843 67.254902,462.607843 67.254902,462.264706 C67.254902,462.607843 67.254902,462.264706 67.254902,462.264706 L67.254902,462.264706 Z M68.627451,464.666667 C68.627451,464.666667 68.627451,465.009804 68.9705882,465.009804 C68.9705882,465.009804 68.9705882,465.009804 68.627451,465.009804 C68.2843137,465.009804 68.2843137,465.009804 68.627451,464.666667 L68.627451,464.666667 Z M69.3137255,466.72549 C69.3137255,466.72549 68.9705882,466.382353 68.9705882,466.039216 L69.3137255,466.039216 L69.3137255,466.72549 L69.3137255,466.72549 L69.3137255,466.72549 Z M205.539216,338.04902 L176.029412,343.196078 L155.441176,193.245098 L149.95098,347.656863 L118.72549,353.147059 L127.990196,174.372549 L179.460784,165.107843 L193.186275,286.578431 L220.294118,157.901961 L271.078431,148.980392 L261.813725,327.754902 L230.245098,333.245098 L241.22549,177.803922 L205.539216,338.04902 L205.539216,338.04902 Z M391.862745,493.147059 L388.77451,464.666667 L359.607843,469.813725 L353.77451,499.666667 L324.607843,504.813725 L292.352941,510.647059 L269.019608,435.843137 L257.009804,437.901961 L252.892157,517.509804 L221.323529,523 L230.588235,344.22549 L272.794118,336.676471 C281.029412,335.303922 286.519608,334.27451 290.294118,333.931373 C298.186275,332.901961 305.392157,333.931373 310.539216,337.019608 C316.715686,340.794118 320.490196,346.970588 322.205882,355.892157 C322.892157,359.666667 322.892157,363.441176 322.892157,367.215686 L321.519608,392.607843 C320.490196,412.166667 315,420.401961 298.529412,426.921569 L323.235294,498.980392 L361.666667,321.235294 L398.039216,314.715686 L423.77451,487.313725 L391.862745,493.147059 L391.862745,493.147059 Z M397.009804,279.372549 C395.980392,273.882353 395.637255,267.705882 395.980392,259.813725 L400.784314,170.254902 C402.5,134.911765 414.852941,120.156863 447.794118,114.323529 C475.931373,109.519608 492.401961,116.039216 495.490196,133.539216 C496.176471,136.970588 496.176471,141.431373 495.833333,147.607843 L494.803922,167.166667 L463.578431,172.656863 L464.264706,155.5 C464.264706,153.098039 464.264706,150.696078 463.921569,148.637255 C462.54902,141.431373 457.401961,138.343137 448.480392,139.715686 C437.5,141.77451 434.068627,147.607843 433.039216,165.107843 L428.578431,254.323529 C428.235294,260.156863 428.235294,262.558824 428.578431,264.960784 C429.95098,272.166667 435.784314,275.598039 443.676471,274.22549 C453.970588,272.509804 458.431373,265.990196 459.117647,251.235294 L460.490196,223.441176 L440.931373,226.872549 L442.303922,200.107843 L493.431373,191.186275 L488.284314,288.294118 L461.176471,293.098039 L461.862745,282.460784 C458.77451,286.921569 457.745098,288.637255 455.343137,291.039216 C449.852941,296.529412 441.27451,300.647059 432.352941,302.019608 C413.137255,305.45098 400.441176,297.215686 397.009804,279.372549 L397.009804,279.372549 Z M439.558824,307.509804 L517.107843,293.784314 L612.5,276.970588 L611.127451,304.421569 L579.215686,310.254902 L571.323529,461.235294 L539.411765,466.72549 L547.303922,315.401961 L515.735294,320.892157 L515.735294,320.892157 L469.754902,329.127451 L467.352941,374.078431 L516.421569,365.5 L515.04902,391.921569 L465.980392,400.5 L461.862745,480.107843 L429.95098,485.598039 L439.558824,307.509804 L439.558824,307.509804 Z"/></g></g></g></svg>