<?xml version="1.0" encoding="UTF-8" standalone="no"?>
<svg
   xmlns:dc="http://purl.org/dc/elements/1.1/"
   xmlns:cc="http://creativecommons.org/ns#"
   xmlns:rdf="http://www.w3.org/1999/02/22-rdf-syntax-ns#"
   xmlns:svg="http://www.w3.org/2000/svg"
   xmlns="http://www.w3.org/2000/svg"
   xmlns:sodipodi="http://sodipodi.sourceforge.net/DTD/sodipodi-0.dtd"
   xmlns:inkscape="http://www.inkscape.org/namespaces/inkscape"
   width="24"
   height="24"
   viewBox="0 0 24 24"
   version="1.1"
   id="svg3794"
   inkscape:version="0.91 r13725"
   sodipodi:docname="bold.svg">
  <metadata
     id="metadata3813">
    <rdf:RDF>
      <cc:Work
         rdf:about="">
        <dc:format>image/svg+xml</dc:format>
        <dc:type
           rdf:resource="http://purl.org/dc/dcmitype/StillImage" />
        <dc:title>ic_format_bold_24px</dc:title>
      </cc:Work>
    </rdf:RDF>
  </metadata>
  <sodipodi:namedview
     pagecolor="#ffffff"
     bordercolor="#666666"
     borderopacity="1"
     objecttolerance="10"
     gridtolerance="10"
     guidetolerance="10"
     inkscape:pageopacity="0"
     inkscape:pageshadow="2"
     inkscape:window-width="640"
     inkscape:window-height="480"
     id="namedview3811"
     showgrid="false"
     fit-margin-top="0"
     fit-margin-left="0"
     fit-margin-right="0"
     fit-margin-bottom="0"
     inkscape:zoom="16.857143"
     inkscape:cx="12.5"
     inkscape:cy="12"
     inkscape:window-x="0"
     inkscape:window-y="0"
     inkscape:window-maximized="0"
     inkscape:current-layer="svg3794" />
  <!-- Generator: sketchtool 3.6.1 (26313) - http://www.bohemiancoding.com/sketch -->
  <title
     id="title3796">ic_format_bold_24px</title>
  <desc
     id="desc3798">Created with sketchtool.</desc>
  <defs
     id="defs3800" />
  <g
     id="FINAL"
     style="fill:none;fill-rule:evenodd;stroke:none;stroke-width:1"
     transform="translate(7,5)">
    <g
       id="1.-Flow-Edição-Contextual"
       transform="translate(-285,-53)">
      <g
         id="tooltip-padrao"
         transform="translate(262,32)">
        <g
           id="icons"
           transform="translate(16,16)">
          <g
             id="ic_format_bold_24px">
            <g
               id="Group">
              <path
                 d="M 0,0 24,0 24,24 0,24 0,0 Z"
                 id="Shape"
                 inkscape:connector-curvature="0" />
              <path
                 d="m 15.6,11.79 c 0.97,-0.67 1.65,-1.77 1.65,-2.79 0,-2.26 -1.75,-4 -4,-4 L 7,5 l 0,14 7.04,0 c 2.09,0 3.71,-1.7 3.71,-3.79 0,-1.52 -0.86,-2.82 -2.15,-3.42 l 0,0 z M 10,7.5 l 3,0 c 0.83,0 1.5,0.67 1.5,1.5 0,0.83 -0.67,1.5 -1.5,1.5 l -3,0 0,-3 0,0 z m 3.5,9 -3.5,0 0,-3 3.5,0 c 0.83,0 1.5,0.67 1.5,1.5 0,0.83 -0.67,1.5 -1.5,1.5 l 0,0 z"
                 id="path3809"
                 inkscape:connector-curvature="0"
                 style="fill:#cccccc" />
            </g>
          </g>
        </g>
      </g>
    </g>
  </g>
</svg>
