<?xml version="1.0" encoding="UTF-8" standalone="no"?>
<svg width="11px" height="14px" viewBox="0 0 11 14" version="1.1" xmlns="http://www.w3.org/2000/svg" xmlns:xlink="http://www.w3.org/1999/xlink">
    <!-- Generator: sketchtool 3.6.1 (26313) - http://www.bohemiancoding.com/sketch -->
    <title>ic_format_bold_24px</title>
    <desc>Created with sketchtool.</desc>
    <defs></defs>
    <g id="FINAL" stroke="none" stroke-width="1" fill="none" fill-rule="evenodd">
        <g id="1.-Flow-Edição-Contextual" transform="translate(-285.000000, -53.000000)">
            <g id="tooltip-padrao" transform="translate(262.000000, 32.000000)">
                <g id="icons" transform="translate(16.000000, 16.000000)">
                    <g id="ic_format_bold_24px">
                        <g id="Group">
                            <path d="M0,0 L24,0 L24,24 L0,24 L0,0 Z" id="Shape"></path>
                            <path d="M15.6,11.79 C16.57,11.12 17.25,10.02 17.25,9 C17.25,6.74 15.5,5 13.25,5 L7,5 L7,19 L14.04,19 C16.13,19 17.75,17.3 17.75,15.21 C17.75,13.69 16.89,12.39 15.6,11.79 L15.6,11.79 Z M10,7.5 L13,7.5 C13.83,7.5 14.5,8.17 14.5,9 C14.5,9.83 13.83,10.5 13,10.5 L10,10.5 L10,7.5 L10,7.5 Z M13.5,16.5 L10,16.5 L10,13.5 L13.5,13.5 C14.33,13.5 15,14.17 15,15 C15,15.83 14.33,16.5 13.5,16.5 L13.5,16.5 Z" id="Shape" fill="#CCCCCC"></path>
                        </g>
                    </g>
                </g>
            </g>
        </g>
    </g>
</svg>
