<?xml version="1.0" encoding="UTF-8" standalone="no"?>
<svg width="24px" height="24px" viewBox="0 0 24 24" version="1.1" xmlns="http://www.w3.org/2000/svg" xmlns:xlink="http://www.w3.org/1999/xlink">
    <!-- Generator: Sketch 3.7 (28169) - http://www.bohemiancoding.com/sketch -->
    <title>Bold</title>
    <desc>Created with Sketch.</desc>
    <defs></defs>
    <g id="Page-1" stroke="none" stroke-width="1" fill="none" fill-rule="evenodd">
        <g id="Bold" fill="#CCCCCC">
            <g id="bold" transform="translate(7.000000, 5.000000)">
                <path d="M8.6,6.79 C9.57,6.12 10.25,5.02 10.25,4 C10.25,1.74 8.5,8.8817842e-16 6.25,8.8817842e-16 L0,8.8817842e-16 L0,14 L7.04,14 C9.13,14 10.75,12.3 10.75,10.21 C10.75,8.69 9.89,7.39 8.6,6.79 L8.6,6.79 Z M3,2.5 L6,2.5 C6.83,2.5 7.5,3.17 7.5,4 C7.5,4.83 6.83,5.5 6,5.5 L3,5.5 L3,2.5 L3,2.5 Z M6.5,11.5 L3,11.5 L3,8.5 L6.5,8.5 C7.33,8.5 8,9.17 8,10 C8,10.83 7.33,11.5 6.5,11.5 L6.5,11.5 Z" id="Shape"></path>
            </g>
        </g>
    </g>
</svg>