<?xml version="1.0" encoding="UTF-8" standalone="no"?>
<svg width="24px" height="24px" viewBox="0 0 24 24" version="1.1" xmlns="http://www.w3.org/2000/svg" xmlns:xlink="http://www.w3.org/1999/xlink">
    <!-- Generator: Sketch 3.7 (28169) - http://www.bohemiancoding.com/sketch -->
    <title>Artboard 5</title>
    <desc>Created with Sketch.</desc>
    <defs></defs>
    <g id="Page-1" stroke="none" stroke-width="1" fill="none" fill-rule="evenodd">
        <g id="Artboard-5" fill="#CCCCCC">
            <g id="lista2" transform="translate(2.000000, 5.000000)">
                <g id="Group">
                    <path d="M5,14 L19,14 L19,12 L5,12 L5,14 L5,14 Z M5,8 L19,8 L19,6 L5,6 L5,8 L5,8 Z M5,0 L5,2 L19,2 L19,0 L5,0 Z M0,12 L3.00189209,12 L3.00189209,14 L0,14 L0,12 Z M0,6 L3.00189209,6 L3.00189209,8 L0,8 L0,6 Z M0,0 L3.00189209,0 L3.00189209,2 L0,2 L0,0 Z" id="Shape"></path>
                </g>
            </g>
        </g>
    </g>
</svg>