<?xml version="1.0" encoding="UTF-8" standalone="no"?>
<svg
   xmlns:dc="http://purl.org/dc/elements/1.1/"
   xmlns:cc="http://creativecommons.org/ns#"
   xmlns:rdf="http://www.w3.org/1999/02/22-rdf-syntax-ns#"
   xmlns:svg="http://www.w3.org/2000/svg"
   xmlns="http://www.w3.org/2000/svg"
   xmlns:sodipodi="http://sodipodi.sourceforge.net/DTD/sodipodi-0.dtd"
   xmlns:inkscape="http://www.inkscape.org/namespaces/inkscape"
   width="24"
   height="24"
   viewBox="0 0 24 24"
   version="1.1"
   id="svg3956"
   inkscape:version="0.91 r13725"
   sodipodi:docname="ul.svg">
  <metadata
     id="metadata3975">
    <rdf:RDF>
      <cc:Work
         rdf:about="">
        <dc:format>image/svg+xml</dc:format>
        <dc:type
           rdf:resource="http://purl.org/dc/dcmitype/StillImage" />
        <dc:title>ic_format_list_bulleted_24px</dc:title>
      </cc:Work>
    </rdf:RDF>
  </metadata>
  <sodipodi:namedview
     pagecolor="#ffffff"
     bordercolor="#666666"
     borderopacity="1"
     objecttolerance="10"
     gridtolerance="10"
     guidetolerance="10"
     inkscape:pageopacity="0"
     inkscape:pageshadow="2"
     inkscape:window-width="640"
     inkscape:window-height="480"
     id="namedview3973"
     showgrid="false"
     fit-margin-top="0"
     fit-margin-left="0"
     fit-margin-right="0"
     fit-margin-bottom="0"
     inkscape:zoom="16.631579"
     inkscape:cx="11.5"
     inkscape:cy="12"
     inkscape:window-x="0"
     inkscape:window-y="0"
     inkscape:window-maximized="0"
     inkscape:current-layer="svg3956" />
  <!-- Generator: sketchtool 3.6.1 (26313) - http://www.bohemiancoding.com/sketch -->
  <title
     id="title3958">ic_format_list_bulleted_24px</title>
  <desc
     id="desc3960">Created with sketchtool.</desc>
  <defs
     id="defs3962" />
  <g
     id="FINAL"
     style="fill:none;fill-rule:evenodd;stroke:none;stroke-width:1"
     transform="translate(2,5)">
    <g
       id="1.-Flow-Edição-Contextual"
       transform="translate(-417,-53)">
      <g
         id="tooltip-padrao"
         transform="translate(262,32)">
        <g
           id="icons"
           transform="translate(16,16)">
          <g
             id="ic_format_list_bulleted_24px"
             transform="translate(137,0)">
            <g
               id="Group">
              <path
                 d="M 0,0 24,0 24,24 0,24 0,0 0,0 Z"
                 id="Shape"
                 inkscape:connector-curvature="0" />
              <path
                 d="m 7,19 14,0 0,-2 -14,0 0,2 0,0 z m 0,-6 14,0 0,-2 -14,0 0,2 0,0 z M 7,5 7,7 21,7 21,5 7,5 Z m -5,12 3.0018921,0 0,2 L 2,19 2,17 Z m 0,-6 3.0018921,0 0,2 L 2,13 2,11 Z m 0,-6 3.0018921,0 0,2 L 2,7 2,5 Z"
                 id="path3971"
                 inkscape:connector-curvature="0"
                 style="fill:#cccccc" />
            </g>
          </g>
        </g>
      </g>
    </g>
  </g>
</svg>
