<svg width="685" height="644" viewBox="0 0 685 644" xmlns="http://www.w3.org/2000/svg"><title>v2_logo</title><g fill="#FFF" fill-rule="evenodd"><path d="M559.725 212.922l-7.549-74.461-14.068 78.578zM261.54 357.725l-14.756 2.746-2.402 46.666 12.696-2.402c9.265-1.715 13.383-3.774 15.785-7.206.686-1.029 1.372-2.745 2.059-4.46 1.029-3.432 1.372-5.147 1.715-12.696l.687-10.98v-4.805c-1.716-6.52-5.834-8.578-15.785-6.863zM350.412 437.676l21.96-3.774-7.548-74.804zM153.794 500.127c4.118-3.43 6.177-8.578 6.52-19.902l4.46-83.382c.344-4.46 0-7.549-.343-9.608-1.372-7.892-6.176-10.294-19.558-7.892l-10.295 1.716-6.52 126.617 11.324-2.058c7.893-1.373 11.324-2.745 14.412-5.49zM447.863 6.483c.343 0 .343.236 1.03.236 0 0 .342.236.342 0 0 0 .343-.473 0-.473s-.686-.236-.686-.236h-1.373.344c0 .236.343.473.343.473zM200.392 33.718v-.335c-.137 0-.137-.168-.274 0 0 .168 0 .335.274.335zM201.833 32.088v.1zM202.794 32.218c0-.158-.137-.317-.274 0 0 .159.137.317.274 0zM202.963 29.686l-.1.1zM276.637 634.637c-.343 0-.343 0-.343-.686h-.343c0 .686-.343 1.03-.343 1.373-.343 0-.686 0-1.03.343-.343.686-.686 1.372-.686 2.058.686-.343.686-.686 1.03-.686-.344.686-.687 1.373-1.03 1.716h-.343c.343 0 .686.343 1.03.343.343 0 .343.343.343.343.343.343 1.029 0 1.029-.343s0-.686-.343-1.03c-.343-1.029-.343-1.715.686-2.401.343-.343 0-.687 0-1.03h.343zM284.655 643.204c.234 0 .469-.166.234-.331-.234 0-.468 0-.703.165.235.166.235.332.469.166zM285.833 643.186c0 .223-.274.223-.274.669.823-.223.823-.223 1.098-.223-.275 0-.275-.223-.55-.223 0-.446-.274-.223-.274-.223zM282.47 642.29c.237 0 .237.157.71.157 0 0 .236-.157 0-.313-.473-.156-.473.156-.71.156zM280.918 641.775c.103-.138.103-.138 0-.275-.103 0-.103.137 0 .275zM287.586 643.49c.448 0 .672-.137.672-.274-.448 0-.896 0-.672.274zM289.333 642.667c0 .274-.343.274-.343.274h.686c0-.274.687-.274 1.03-.274v-.55s-.343 0-.343-.274c-.343.55-.687.55-1.03.824zM278.902 635.856c-.275 0-.275 0-.55.234 0 0 .275 0 0 .235 0-.235.275 0 .55-.235 0-.234 0-.234.549-.468 0-.235-.275 0-.549.234zM279.52 637.337c0 .235-.138.235-.138.703h.275v-.468c0-.235-.137-.469-.137-.235zM292.765 642.342c.472.561.709.28.709-.28.236 0 0-.281 0-.562l-.71.842zM22.03 233.468c0 .463 0 .695.328.695.164-.695 0-.927-.329-.695zM19.97 286.01c-.343-.343-.686-1.03-.686-1.373-.343-1.03-.686-1.715 0-2.745.343 0 0-.343 0-.686-.686-1.03-.343-2.059-.343-3.431 0-1.373 0-2.746.343-4.118.343-1.373-.343-2.059-1.03-3.088 0-.344-.342 0-.342 0-.343 0 0 .343 0 .343 0 1.03.343 2.059.343 3.088 0 .686-.343 1.716-.343 2.402 0 1.373 0 2.745.686 4.118v.343c-.343 2.059.343 4.117.343 5.833.343-.343.686-.343 1.03-.686zM21.343 229.735c.686.343 1.03 1.373 1.716 2.06 0-1.03 0-1.373-1.716-2.06zM16.54 297.333c-.344.687-.344 1.03.342 1.373.343.343.687.686 1.373 0-.343-.343-.686-1.373-1.716-1.373zM20.657 228.669c-1.03-.228-1.03-.228-2.059-.114v.114h2.059zM18.941 240.373c.343.343.343 1.029.343 1.372 0 1.03-.343 2.059 0 3.088.343 1.03.687 2.06.687 3.089 0 .343.343 0 .686.343-.343-3.089-.343-5.49-1.716-7.892zM16.47 260.618c0 1.372 0 2.745.275 4.117h.275c.274-.343.274-.343.274-.686-.274-.343-.274-.686-.274-1.03.549-1.372-.275-2.401-.275-3.774 0 0 0-.343-.549-.343.275.343 0 .686.275 1.03v.686zM9.333 216.696c0-.343 0-.686-.343-1.03-.343-.686-.686-1.372-.686-2.058-.343-1.03-.686-2.059-1.716-3.088.343 1.029.343 1.715.687 2.745 0 1.372 1.029 2.402 1.715 3.431-.343.343 0 .343.343 0zM10.488 224.245c-.287.686-.143 1.716.144 2.059-.144-.343.143-1.373-.144-2.059zM17.591 267.48c-.418.344-.627.687-.418 1.373.21.343-.21 1.03.418 1.03.21-1.373.21-3.089-.209-4.461-.209 1.029-.418 1.715.21 2.058zM11.815 228.706c-.7.686-.7.686-.233 1.716.233 0 .465-.344.465-.344-.232-.343-.232-.686-.232-1.372zM9.676 221.157c.206 1.03.206 1.716.412 2.059 0 .343.206 0 .206 0 0-.687-.206-1.373-.206-2.06-.206 0-.206.344-.412 0zM10.02 220.47v-.686c.343 0 .686.343 1.029.343-.686-.686-1.03-1.372-1.373-2.058 0-.344-.343-.344-.686-.344s-.343.344-.343.344c.343.343 0 .686-.343 1.029.686.343 1.03.686 1.716 1.373zM14.275 243.118c-.292-1.373-.584-2.745-.584-4.118-.291-.343-.583 0-.583.343s.292.343 0 .686c.292 1.716.292 3.089.583 4.804h.292c.583-.343.292-1.03.292-1.715zM13.108 238.657h.686c0-.686.343-1.373-.343-1.716 0 0-.343 0 0-.343.343-1.03-.686-2.059-.686-2.745 0-.686-.343-1.03-.687-2.059.344 1.373 0 2.745.687 3.431 0 .344.343.344.343.687-.686 1.03-.343 1.715 0 2.745zM12.587 301.794c-.165 0-.165.166-.165.166 0 .165.165.331.33.165.167-.165 0-.165-.165-.33zM10.928 227.333c-.159.138-.159.275.159.275.158-.275.158-.275-.16-.275zM17.157 240.373c-.206.113-.412 0-.618.113.412.114.618.114.618-.113zM16.882 258.216c0-1.716 0-3.775-.343-5.49-.343-2.06-.686-4.118-1.372-6.177 0 0 0-.343-.343 0 0-.343 0-.343-.344-.343v1.372c.344.687.687.687.344 1.373v.686c0 .343.343 1.03.343 1.716 0 .343-.343.686 0 1.03.686.342.686 1.029 0 1.715v.686c0 .343.343 1.03.343 1.373 0 .686 0 1.372.343 2.059 0 .343.343.343.343.686.343-.343.686-.343.686-.686zM17.484 238.657c-.329 0-.493.549-.329.823 0 .275.164.275.164.275.165-.55.165-.824.165-1.098zM.643 272.284c-.173.824-.173.824.172 1.098.345-.823 0-.823-.172-1.098zM1.784 276.402c.149.274.149.549.297 1.098 0-.549.148-1.098-.297-1.098z"/><path d="M662.667 343.314c.686-.687 1.03-1.373 1.03-2.402 0 0 0-.687.342-1.03.686.687 1.716 0 2.059-1.03.343-.685.686-2.058.343-3.43-.343-.344-.343-1.03.343-1.03 1.03-.343 1.03-1.372 1.03-2.402.343-.686 0-1.715.343-2.745v-1.03c-.686-2.744-.686-4.803-.343-7.548 0-1.03 0-1.716.343-2.06-.343 0-.343-.342-.686-.342 0-1.03-.344-1.716-.344-2.402-.343-1.373-.343-3.088-.686-4.461-.686-2.402-1.03-3.775-2.745-6.177-.343-.343-.343-1.029-.343-1.372 1.03-15.784-1.03-29.853-4.118-42.55 0-1.028-.343-1.715-.686-2.744-.343-.343 0-.686 0-1.03 0-3.431-.343-6.862-1.03-10.294 0-1.03-.343-1.715-.343-3.088-1.029-3.431-2.401-6.863-4.117-9.95-.343-.344-.343-1.03-.686-1.373-1.373.686-1.373 2.745-1.373 4.46-.343-1.372-1.03-2.059-2.059-2.059-.686-1.029-1.03-2.401-1.716-3.43-2.058-7.207-4.46-14.07-6.862-20.932 0-1.03-.343-2.06-1.03-2.745 0-.343-.343-.687-.343-1.03v-.343c.343-.686.686-1.716 1.03-2.402.343-.343 1.029-1.03 1.715-1.372-.686-.344-.686-.687-.686-.687 0-.343.343-.343.686-.343 0-.343.343-.686.687-.686.686 0 .686-.686.686-1.03.343-.686.343-1.029 1.03-1.372v-.343c.342-.686 0-.343.342-.343 0 0 .344 0 .344-.343l-.344-.344c-.343 0-.343 0-.686-.343.686 0 .686-.686 1.03-1.03 0-.342.343-.685.686-.685 0-.344.343-.687 0-1.03 0-.686-.343-1.03-.343-1.372.343-.344.686-.687.343-1.03.343-.686.343-1.372 1.03-1.715-.687-.344-.687-.687-.344-1.373v-.686l-.343.343-.686-.686s-.343 0-.687-.344c0 .344-.343.344-.343.344-.686-.344-.686-.344-.686 0v.686h.343c.343-.686.686-.343 1.373-.343.686.343.343.686.343 1.03.343 0 .343.342.343.342.343 0 .343.343-.343.687 0 .343-.343.686-.343.686-.343.686-.343 1.372-.687 2.059.344.343 0 .686 0 1.029 0 .343 0 .686-.343 1.03 0 .343-.343.686-.686 1.029v1.03c0 .342-.343.342-.686.686-.343.686-.343.686-1.03 1.029 0 .343 0 .343-.343.686.343.343 0 .686-.343.686l-.343-.343c-.343-.686-.343-.686 0-1.372.343-.343.686-.686.686-1.373-.343-.343-.343-.343-.343-.686-.343-.343 0-.686.343-.686 0-.343.343-.687 0-.687l-.686.687c-.343 0-.686 0-.343.343 0 .686-.687 0-.687.343l-.686-.343c-.343-.343 0-.686-.343-.686 0-.344 0-.344-.343-.344h-.343c0 .344 0 .344-.343.344-.343-.344 0-.687.343-.687l.686-.686c-.686 0-1.03.343-1.716.343h-.343c-.343 0-.686-.686-1.03-.686-.685-.343-.685-.686-.685-.686 0-.344.343-.687.343-.687l.686-.686h-.343c.686 0 1.372-.343 1.03-.686.342-.343.686-.343 1.029-.686.343-.687 1.03-1.03 1.372-1.03 0-.343 0-.686-.343-.343-.343 0-.343.343-.686 0l-1.03 1.03c-.686 0-1.372.343-1.372-.344-.343 1.03-.686 2.06-1.03 3.088-.343 0-.343-.343-.343-.686l-.343.343-.686.687c-.343 0-.686-.344-.686-.344-14.755-33.284-35.344-63.823-60.05-89.901l24.02 160.93-31.225 5.491-3.089-28.48-29.166 5.147-5.834 29.853-32.598 5.833 39.804-184.265 27.794-4.804c-27.794-26.764-60.392-48.725-96.421-64.166.343 0 .343-.343.343-.343 0-.344.686-.344.686-.687h.343c.344 0 1.03.343 1.373.343 0 0 .343-.343.686-.343-.343 0-.343 0-.343-.343h-.343l-.343-.343h.343c.343 0 .343-.343.343-.343s-.343 0-.343-.343v-.343h.343s.343.343.343 0c.687 0 1.373-.687 2.06-.687.342 0 .342-.343.685-.343h.343s-.343-.343-.686-.343c0 0-.343 0-.343-.343s-.343-.343-1.03-.686c-.342 0-.686-.687-.686-.687v-.343H470.853c0-.343-.343-.343-.343-.343-.686-.343-1.716-.686-2.402-1.03 0-.342 0 0-.343 0-.343-.342-1.03-.342-1.716-.686-.686-.343-1.716-.343-2.402-.686-.686-.343-1.716-.343-2.402-.686-.343.343-.343 0-.343 0v-.343c.343 0 .343 0 .343-.343 0 0 .343 0 .343-.344 0 0 0-.343-.343-.343h-4.804c0-.343-.343 0-.686-.343h-.343s-.343-.343-.343 0h-1.03c0 .343-.343.343-.343 0h-.686c-.343 0-.686-.343-1.03-.686.687-.343 1.03 0 1.373 0 .686 0 1.372 0 1.716-.343h.343l.343-.343c.343 0 .343-.343.686-.343v-.344c.343 0 .686 0 1.373-.343.343 0 .343-.343.343-.686-.343.343-1.03 0-1.373 0h-.343c-.343.343-.686.343-1.03 0 0 0-.342 0-.342.343H451.294c-.686 0-1.372-.343-1.716 0h-.343c-.343-.343-.343 0-.686 0h-.343c0-.343-.343-.343-.686-.343-.344 0-.687-.343-1.03 0-.343.343-.686.343-1.03.343-.342 0-.685 0-.685-.343h-1.03c-.343-.343-.686-.343-1.03 0-.686-.343-.686-.343-.342-.686.343-.343.343-1.03.343-1.373l1.03-1.03c.342-.342.685-.686 1.372-1.029-.343 0-.343-.343-1.03-.343h-1.03c-.342 0-1.029 0-1.715-.343h-2.059c-.686.343-1.03.343-2.059.343h-7.549c-.343 0-.686.343-1.029 0 0-.343-.343 0-.343 0h-.343c-.343-.343-1.03-.343-1.373 0-.686 0-1.715-.343-2.402-.343-1.03 0-2.059-.686-2.745-.686h-.686c-.343 0-.343-.343-1.03-.343h-.343c-.686-.344-1.715-.687-2.745-.687-.343-.343-.686 0-1.03-.343-.342 0-1.029 0-1.372-.343-.343 0-.343 0-.343-.343-.343-.343-1.03-.343-1.372-.343 0 0-.344.343-.687 0-.686-.343-1.372-.343-2.402-.686-.343-.344-.686 0-1.372-.344h-.343c-.687 0-1.373-.343-1.716-.343-.343-.343-.686-.343-1.373-.343H403.255c-.686-.343-1.716-.343-2.402 0-.343 0-.686 0-1.03.343 0 .343-.343.687-.343 1.03v.343c.344.343.344 1.03.344 1.03-1.03-.344-1.716-.344-2.746-.687-.686 0-1.029-.343-1.372-.343-.686-.343-1.373-.686-2.402-.686-.343-.344-.686-.344-1.373-.687-.343 0-1.029-.343-1.372-.686h-.686c0 .343-.344.343-.344 0-.686-.343-1.372-.686-2.058-1.373-.344 0-.687-.343-.687-.343h-1.03c-.342 0-.342.343-.342.343 0 .344.343.687.343 1.03C370.657 1.549 355.559.176 340.118.176c-19.902 0-39.804 1.716-58.677 5.49-6.52-2.058-14.068-1.372-19.902-.686-10.637 1.373-20.931 3.775-31.225 6.177-4.118 1.03-13.383 4.46-20.589 9.265-1.715 1.029-3.43 2.058-4.803 3.774-1.03 1.03-2.06 2.402-2.746 3.431 0 0 0-.343 0 0l-.343.344c0 .343 0 .343.343.343v.343h.344V29l.343.686v1.03c-26.422 12.696-50.785 28.48-72.402 47.353v-.344c0-.686.343-1.372.343-2.058 0-.343 0-.687.343-1.03.343-.343.343-.686.343-1.03 0-1.029.343-2.058.343-2.744v-.343l1.03-2.06c.343-.342.343-.685 0-1.029-.343-.343-.343-.343-.343-.686-.344-.343-.344-.343-.687-.343-1.03-.686-2.058-.343-2.745.343-.686 1.03-1.715 1.716-2.402 2.745-.343.343-.686.343-1.03.343h-.342c-.343.343-.687.687-1.373 1.03-.686.686-1.03 1.372-1.372 2.059-.344.686-1.03 1.372-1.373 2.402-.343.343-.686.343-.686.686-.686.686-1.373 1.715-2.059 2.402-.343.343-.686.686-.686 1.03-.343.685-.687 1.029-1.03 1.715-.343.686-.686 1.03-1.03 1.372-.685 1.03-1.029 2.06-1.715 3.432-.686 1.03-1.03 1.715-1.715 2.745-.687.686-1.373 1.716-2.06 2.402-1.029 1.372-2.058 2.745-2.744 4.117 0 .344-.344.344-.344.687-.343.343-.343.343-.343.686s0 .686-.343 1.03c-.686 1.029-1.372 2.058-1.716 3.088-.343.343-.343.343-.343.686-.686.686-1.372 1.373-2.058 2.402-.344.343-.687 1.03-1.03 1.372-.343.687-.686 1.03-1.03 1.716-.342.343-.686.686-.686 1.373-.686.686-1.029 1.372-1.715 2.059-.687.686-1.03 1.372-1.373 2.058-.686 1.03-1.715 2.06-2.402 3.089-.686 1.029-1.03 1.715-1.715 2.402-26.765 32.94-47.01 71.372-59.02 112.892-.343 0-.686-.687-1.03-1.03-.343-.343-.343-1.03-.686-1.372-.343-.687-.343-1.373-.343-2.06.343-1.372.686-2.744 0-4.117-.343-.343 0-.686 0-1.372.343-1.03 0-1.716-.343-3.089-.343-.686-.343-1.029 0-1.715.343 0 .343-.343.343-.686 0-1.373.686-2.746 1.716-3.775.343 0 .343-.343.343-.686-1.03-.687-1.716-1.716-1.03-2.745.687-1.373.687-2.402.344-3.432 0-.686 0-1.372-.343-2.059-.344-.686-.344-1.029 0-1.372.343-1.03.343-2.402 0-3.775-.687 0-1.373 0-1.373.687-.686.686-1.373 1.715-1.716 2.402-.343 1.029-1.03 1.715-1.03 2.745 0 .343 0 .343-.342.686-.343 1.03 0 2.059-.343 3.431 0 .344-.344.687-.344 1.03-1.029 1.715-1.029 3.774-1.372 5.49-.343 1.03-.343 2.059-.686 3.088-1.03 2.059-1.373 4.461-1.716 6.52-.343 2.745-.686 5.49-1.373 7.892 0 .343-.343.686-.686.686 0 .343.343.343.343.343-.343.687 0 1.373 0 2.402v.687c-.343 2.058-.686 4.117-.686 6.176-.343 1.373-.343 3.088-.686 4.46 0 .687-.343 1.373 0 2.06 0 .343-.343.343-.343.686-.344-.686-.687-1.03-.687-1.716-.343 1.03-.343 2.06-.343 3.089s.686 2.058.343 3.088c-.343 1.372 0 2.745 0 3.774v3.775c0 .343-.343.686-.343 1.03 0 3.774.343 7.548.343 11.323.343 1.372 0 2.745.343 4.117.344 2.06 0 4.118-.343 6.177-.343 1.03-.343 2.402-.343 3.431.343 2.059.343 3.775.686 5.49v1.373h-.343c0-.343-.343-.343-.343-.686V291.5c0-1.373-1.03-2.059-1.03-3.775-.686-.686-.686-1.372-.342-2.401-1.373 0-1.716 1.029-1.373 2.058 0 .687.343 1.03.343 1.373.343.343.343 1.03.343 1.716 0 .686.343 1.715.343 2.402 0 1.372.344 2.402 1.373 3.43-1.03.687-2.059 1.717-3.088 2.403h-.343c-.687 0-1.373.343-1.716 1.03.686.342 1.03.342 1.373.686.343-.344.343-.687.686-1.373.686.343 1.03.686 1.372 1.03.343 0 0 .686.343 1.029v.343h.687c1.03 0 1.372.343 1.372 1.373v1.029c.343 0 .343 0 .687.343-.344 4.118-.344 7.892-.344 12.01l-.343-.343c-.343-.687-.686-1.716-1.372-2.402-.343-.343-.687-1.03-1.03-.686.343 1.029.687 2.058 1.03 2.745 0 .686.343 1.715.686 2.402v.686c0 1.372 0 2.402.343 3.431 0 .343.343.686.343 1.373.343 37.745 7.55 74.117 19.902 107.402h-.343c-.343 0-.343 0-.343.343-.343 0-.343.343 0 .343 0 .343.343 1.03.686 1.373.343.686.687 1.372.687 2.058 0 0 .343.344.343.687.343.343.343 1.03 1.03 1.03 0 0 .342.342.342 0 .343.685.687 1.372.687 2.058 0 .343.343 1.03.343 1.372.343.344.343.687.343 1.03v1.716c.343 1.372.343 2.401.686 3.43.686 1.717.686 3.432 1.373 5.491 0 .343.343.686.343 1.03 0 0 0 .343.343.343-.343.343 0 .343 0 .686v1.03c0 1.029.343 1.715.343 2.744 0 .344.343 1.03.686 1.716 0 1.716.343 3.431 1.03 4.804 0 1.03.343 2.059.686 3.088 0 0 0 .343.343.343 0 .344.343.687.343 1.03.343.686.343 1.716.687 2.402.343.343.343 1.03.686 1.372.343 1.03 1.03 2.06 1.372 3.089.343.686.687 1.715 1.03 2.402 0 .686.343 1.372.343 1.715 0 .686 0 1.03.343 1.373.343 1.03.686 2.059 1.373 3.088l.343.343c.343 1.03.686 1.716 1.03 2.745.342.687 1.029 1.373 1.715 2.402.343.343.686.343 1.03.343.342-.343.686-.343 1.029-.686l.686-.686c.343-.343.343-.686.686-.686.343-.344.343-.687.686-.687.344-.343.687-.686.687-1.03.343-.342.343-.685.686-1.029.686-.686 1.03-1.372 1.03-2.745a315.006 315.006 0 0 0 27.45 38.775l8.579-164.363 48.04-8.578c25.391-4.461 39.803 3.088 43.234 23.333.687 4.46 1.03 10.98.343 22.647l-.343 80.294c-.343 2.745-.343 5.833-.686 9.608-1.372 11.667-3.431 18.53-7.206 25.049-2.745 5.147-6.52 9.265-11.323 12.01-7.55 4.804-13.04 6.52-34.657 10.294l-31.226 5.49a299.718 299.718 0 0 0 26.079 25.05c-.687.342-1.03 1.029-1.373 1.715-1.715.686-2.745.343-4.117.686 1.715 1.716 3.774 2.059 4.803 3.775 0 .343-1.029 1.372-1.029 2.058-.343 2.06.343 2.402 2.059 3.089 1.716 1.03 2.745 2.059 4.118 3.088 1.029.686 1.715 1.716 1.372 3.088 0 1.03.686 1.373 1.373 2.059 0 0 .343.343 1.029.686-1.03.343-.686 1.373 0 2.402.343.686 1.716 1.716 2.745 2.059.343 0 1.03 0 1.03.686 0 1.373.686 1.716 1.715 1.716.343.686 1.716 1.03 2.402 1.716.343.343.686.343 1.03.343 2.745.686 4.46 1.716 6.52 3.431.685.686 1.372 1.03 1.715 1.03.343-.344.686-.344.686-.344 1.03.344 1.716.687 2.402 1.03 1.373.343 2.745 1.03 4.46 1.716 2.403.686 3.775.686 6.52.686.687 0 1.716.343 2.746.343 1.029.686 2.745 1.373 3.774 1.716 1.716.343 2.745 1.03 3.775 2.745.343.343 1.03.686 1.715 1.03.343-.344.687-.687 1.373-1.03.343 0 .343 0 .686.343 1.716 1.03 3.432 2.059 4.804 3.088.686.686 1.716 1.03 2.402 1.373 2.059-.343 3.431.686 4.46 2.059 1.717-.687 3.09-.344 4.805.686 1.715 1.03 3.088 1.372 4.46 2.059 1.373.343 3.089.686 4.461 1.715 1.716 1.03 2.745 1.373 4.461 1.716.343 0 .686.343 1.03.343 3.088 1.373 6.176 2.745 9.607 4.118 1.03.343 1.716.686 2.745 1.03 3.432.685 6.863 1.029 10.295 1.372 10.637 3.431 21.617 6.52 32.94 8.921 0 .343-.342.687-.342.687v1.372c-.687.343-.687.686-.687 1.03-.343.343-.686 1.372-1.372 1.372.343.343.343 1.03 0 1.373v.686h.343c0 .343.343.686.343 1.03 0 0 .343 0 .343.342 0-.343.686-.343.686-.343.344.343.344.343.687 0v-.686h-.343c-.344.686-.687 0-1.373 0-.343-.343 0-.686 0-1.03-.343 0 0-.343-.343-.686-.343 0 0-.343.343-.343 0-.343.343-.343.343-.686.343-.343.686-1.03 1.03-1.716 0-.343 0-.686.343-1.03 0-.342 0-.685.686-1.029.686 0 1.373.344 2.059.344 0 .343-.343.343 0 .686.343 0 .686-.343 1.03-.343h.342c.344 0 1.03.343 1.373.343v.686h.343c0-.343 0-.343.686-.343 0 .343 0 .686-.343.343-.343 0-.686.343-.686.686h2.059c.343 0 .686.687.686 1.03.343.343.686.686.343 1.03 0 .342-.343.342-.343.685 0 .344-.686.344-.686.687h.343c-.686 0-1.373 0-1.373.343-.343 0-.686 0-1.03.343-.342.343-1.028.686-1.372.686 0 .343 0 .687.344.687h.686c.343 0 1.03-.344 1.03-.687.685 0 1.372 0 1.372.687.686-1.03 1.03-1.716 1.715-2.746.344 0 .344.687 0 .687.344 0 .687-.343.687-.343.343 0 .686-.344 1.03-.344.342.344.685.687 1.715.687.686.686 1.03.343 1.03-.343.342 0 .342.343.686.686h.686c1.03.343 2.059.343 3.088.343.343 0 .686-.686 1.03-.686.686 0 .686 0 1.372-.343 0-.344.343-.344.686-.687v-.343c0-.343.343-1.03.343-1.03s.344 0 .344-.342c15.098 2.402 30.882 3.431 46.666 3.431 38.432 0 75.49-6.863 109.804-19.216 3.088-.686 7.892-2.402 9.608-3.774.686-.343 1.03-.343 1.716-.686h.343c-.686.686-1.03 1.372-1.373 2.058l-1.715 1.716c.686 0 1.029-.686 1.029-1.03.686-.342 1.373-.686 1.716-.686 1.03-.343 2.058-1.029 2.745-1.715.343-.687 1.03-.687 2.059-.687.686 0 1.029-.343 1.715-.343 1.373-1.372 2.402-2.059 4.118-2.059.686.344 1.03-.343 1.372-.686.344 0 .687-.343 1.03-.343.343.686.686.686.686 1.03 1.373-.687 2.745-1.716 3.775-2.402 3.088-1.716 5.833-4.118 9.264-5.49 1.716-.687 3.089-1.716 4.804-1.373.343.343.343 0 .343 0 3.089-1.03 6.177-1.373 8.579-3.775 1.716.343 3.431.343 4.804-.343 1.372-.686 2.059-1.716 3.431-1.716 1.373-.686 2.402-1.372 3.432-3.088 1.029.686 2.058 0 3.43-.686 3.775-1.03 7.55-2.402 10.981-4.46.343-.344.687-.344 1.03-.687 2.059-.343 3.431-1.03 5.147-2.402.343.343 1.03.686 1.372.686 2.402-.686 4.461-2.402 6.52-4.117.686-.344 2.059-1.373 2.745-2.402.343-1.03 1.03-1.373 1.716-1.373.686-.343 1.03-.343 1.372-.343.687-.686 1.03-1.373 1.716-2.059 1.716-1.372 3.431-2.402 4.804-4.118.686-.686 1.372-1.715 1.716-2.402 2.401-1.715 4.46-3.774 6.52-5.49.685-.686 1.372-1.715 2.401-2.745 2.745-3.088 6.177-6.52 8.235-9.95 2.745-4.462 3.775-8.922 0-13.383 3.089-3.432 6.177-6.52 8.922-9.951 24.363-13.726 36.373-30.54 46.323-49.412 6.52-12.01 6.863-25.735 6.177-35.343 6.176-14.412 10.98-29.51 15.098-44.951 5.147-11.667 5.833-22.304 5.833-22.304s4.118 3.088 9.265 9.951c16.814 19.559 18.53 8.235 18.53 8.235-1.03-2.059-18.187-11.323-21.961-51.47zM21.343 253.069c-.343-.687-.343-1.373 0-1.716.343.343.343 1.03 0 1.716zM460.56 18.019c.343 0 0 .344 0 .344v-.343zm-10.637 0c.343 0 .343-.343.343 0 .343 0 .343 0 .686-.343l-.343.344c-.343.343-.343.686-.686.686 0 0-.344 1.03-.344 2.402 0-1.716 0-3.088.344-3.088zm-80.98 107.746l-1.373 27.108-51.471 9.264L314.039 204l48.726-8.578-1.373 27.107-48.725 8.579-2.745 54.902 53.872-9.608-1.372 27.45-85.785 15.099 9.265-178.775 83.04-14.411zM21.685 319.637h.687v.687c-.344 0-.687-.344-.687-.687zm31.569 138.628c0 .343 0 .343 0 0 0 .343 0 .343 0 0 0 .343 0 0 0 0zm1.372 2.402s0 .343.344.343h-.344c-.343 0-.343 0 0-.343zm.687 2.058s-.343-.343-.343-.686h.343v.686zM191.539 334.05l-29.51 5.147-20.588-149.95-5.49 154.41-31.226 5.491 9.265-178.774 51.47-9.265 13.726 121.47 27.108-128.676 50.784-8.922-9.264 178.775-31.569 5.49 10.98-155.441-35.686 160.245zm186.324 155.098l-3.088-28.48-29.167 5.147-5.833 29.853-29.167 5.147-32.255 5.833-23.333-74.804-12.01 2.059-4.118 79.608-31.568 5.49 9.264-178.775 42.206-7.549c8.235-1.372 13.726-2.401 17.5-2.745 7.892-1.029 15.098 0 20.245 3.089 6.177 3.774 9.951 9.95 11.667 18.872.686 3.775.686 7.55.686 11.324l-1.372 25.392c-1.03 19.559-6.52 27.794-22.99 34.314l24.705 72.058 38.432-177.745 36.372-6.52 25.736 172.599-31.912 5.833zm5.147-213.774c-1.03-5.49-1.373-11.667-1.03-19.56l4.804-89.558c1.716-35.343 14.069-50.098 47.01-55.931 28.137-4.804 44.608 1.715 47.696 19.215.686 3.432.686 7.892.343 14.069l-1.03 19.559-31.225 5.49.687-17.157c0-2.402 0-4.804-.343-6.863-1.373-7.206-6.52-10.294-15.442-8.921-10.98 2.059-14.411 7.892-15.44 25.392l-4.462 89.216c-.343 5.833-.343 8.235 0 10.637 1.373 7.206 7.206 10.637 15.098 9.264 10.295-1.715 14.755-8.235 15.442-22.99l1.372-27.794-19.559 3.432 1.373-26.765 51.127-8.922-5.147 97.108-27.108 4.804.687-10.637c-3.088 4.46-4.118 6.176-6.52 8.578-5.49 5.49-14.068 9.608-22.99 10.98-19.216 3.432-31.912-4.803-35.343-22.646zm42.549 28.137l77.549-13.726 95.392-16.813-1.373 27.45-31.911 5.834-7.892 150.98-31.912 5.49 7.892-151.323-31.569 5.49-45.98 8.235-2.402 44.951 49.069-8.578-1.373 26.422-49.069 8.578-4.117 79.608-31.912 5.49 9.608-178.088z"/></g></svg>